<svg width="1728" height="1154" fill="none" xmlns="http://www.w3.org/2000/svg"><g filter="url(#a)"><circle cx="723.5" cy="431.5" r="289.5" fill="#BFA0D8" fill-opacity=".1"/></g><g opacity=".7"><mask id="c" style="mask-type:alpha" maskUnits="userSpaceOnUse" x="117" y="-449" width="1548" height="1736"><path transform="rotate(26.115 747.182 -448.154)" fill="url(#b)" d="M747.182-448.154h1021.41v1431.16H747.182z"/></mask><g mask="url(#c)"><path d="M1486.85 726.711C1325.06 1079.36 951.5 1238.33 652.557 1081.74c-31.353-16.43-60.752-35.73-87.937-57.43 278.7 82.05 593.1-78.393 737.95-394.128 144.86-315.734 70.92-679.418-160.41-864.704 32.7 9.669 64.99 22.679 96.34 39.102 298.94 156.59 410.14 569.477 248.35 922.131Z" fill="url(#d)"/><g filter="url(#e)"><path d="M1466.38 715.985c-161.8 352.655-514.88 522.345-813.823 365.755-31.353-16.43-60.752-35.73-87.937-57.43 278.7 82.05 613.57-67.668 758.43-383.402 144.85-315.734 50.44-690.144-180.89-875.43 32.7 9.669 64.99 22.679 96.34 39.102 298.94 156.59 389.67 558.751 227.88 911.405Z" fill="url(#f)"/></g><g filter="url(#g)"><path d="M1456.14 710.622c-161.8 352.658-530.135 527.918-829.078 371.328-31.353-16.42-60.751-35.72-87.936-57.42 278.699 82.04 649.304-62.526 794.154-378.26 144.86-315.734 12.71-708.216-218.62-893.502 32.7 9.669 64.99 22.679 96.34 39.103 298.94 156.59 406.93 566.097 245.14 918.751Z" fill="url(#h)"/></g><g filter="url(#i)"><path d="M1456.14 710.622c-161.8 352.658-530.135 527.918-829.078 371.328-31.353-16.42-60.751-35.72-87.936-57.42 278.699 82.04 649.304-62.526 794.154-378.26 144.86-315.734 12.71-708.216-218.62-893.502 32.7 9.669 64.99 22.679 96.34 39.103 298.94 156.59 406.93 566.097 245.14 918.751Z" fill="url(#j)"/></g><g filter="url(#k)"><path d="M1456.14 710.622c-161.8 352.658-530.135 527.918-829.078 371.328-31.353-16.42-60.751-35.72-87.936-57.42 278.699 82.04 649.304-62.526 794.154-378.26 144.86-315.734 12.71-708.216-218.62-893.502 32.7 9.669 64.99 22.679 96.34 39.103 298.94 156.59 406.93 566.097 245.14 918.751Z" fill="url(#l)"/></g><g filter="url(#m)"><path d="M1389.48 703.69c-161.79 352.65-463.475 534.85-762.418 378.26-31.353-16.42-60.751-35.72-87.936-57.42 278.699 82.04 678.484-36.18 827.434-360.831 186.62-406.775-20.57-725.645-251.9-910.931 32.7 9.669 64.99 22.679 96.34 39.103 298.94 156.59 340.27 559.165 178.48 911.819Z" fill="url(#n)"/></g><g filter="url(#o)"><path d="M1389.48 703.69c-161.79 352.65-449.9 603.87-748.843 447.28-31.354-16.43-99.317-148.87-126.503-170.572 278.7 82.042 703.476 7.952 852.426-316.699 186.62-406.774-66.83-706.12-298.16-891.405-14.62 31.861 95.09-70.607 126.44-54.184 298.94 156.59 356.43 632.926 194.64 985.58Z" fill="url(#p)"/></g><g filter="url(#q)"><path d="M1389.48 703.69c-161.79 352.65-449.9 603.87-748.843 447.28-31.354-16.43-99.317-148.87-126.503-170.572 278.7 82.042 703.476 7.952 852.426-316.699 186.62-406.774-66.83-706.12-298.16-891.405-14.62 31.861 95.09-70.607 126.44-54.184 298.94 156.59 356.43 632.926 194.64 985.58Z" fill="url(#r)"/></g><g filter="url(#s)"><path d="M1389.48 703.69c-161.79 352.65-449.9 603.87-748.843 447.28-31.354-16.43-99.317-148.87-126.503-170.572 278.7 82.042 703.476 7.952 852.426-316.699 186.62-406.774-66.83-706.12-298.16-891.405-14.62 31.861 95.09-70.607 126.44-54.184 298.94 156.59 356.43 632.926 194.64 985.58Z" fill="url(#t)"/></g></g></g><g filter="url(#u)"><mask id="w" style="mask-type:alpha" maskUnits="userSpaceOnUse" x="670" y="490" width="692" height="507"><path opacity=".8" d="m670.184 776.266 148.177 220.353 300.799-92.465 241.88-413.555-232.82 29.168-60.81-6.439-364.565 207.093-32.661 55.845Z" fill="url(#v)"/></mask><g opacity=".8" mask="url(#w)"><path d="M1473.67 598.141c-10 73.373 40.7 25.053 1.88 95.963-17.88 32.678-248.36 221.287-270.28 248.786-115.63 102.78-256.182 134.25-371.713 81.64-23.484-10.63-44.745-24.802-65.312-40.94 104.099 81.86 265.795-5.148 366.875-109.434 143.17-147.501 218.35-376.412 137.55-588.043 114.6 90.576 128.15 375.191 137.27 329.069l63.73-17.041Z" fill="#BFA0D8"/><g filter="url(#x)"><path d="M1444.76 582.674c-10 73.373 40.7 25.052 1.88 95.963-17.88 32.678-248.36 221.286-270.28 248.786-115.63 102.777-256.183 134.247-371.713 81.637-23.484-10.628-44.746-24.799-65.312-40.938 104.099 81.868 326.405-7.525 427.495-111.811 143.16-147.502 257.59-325.914 176.79-537.546 114.6 90.577 28.29 327.072 37.41 280.95l63.73-17.041Z" fill="#BFA0D8"/></g><g filter="url(#y)"><path d="M1444.76 582.674c-10 73.373 40.7 25.052 1.88 95.963-17.88 32.678-248.36 221.286-270.28 248.786-115.63 102.777-256.183 134.247-371.713 81.637-23.484-10.628-44.746-24.799-65.312-40.938 104.099 81.868 326.405-7.525 427.495-111.811 143.16-147.502 257.59-325.914 176.79-537.546 114.6 90.577 28.29 327.072 37.41 280.95l63.73-17.041Z" fill="#BFA0D8"/></g><g filter="url(#z)"><path d="M1444.76 582.674c-10 73.373 40.7 25.052 1.88 95.963-17.88 32.678-248.36 221.286-270.28 248.786-115.63 102.777-256.183 134.247-371.713 81.637-23.484-10.628-44.746-24.799-65.312-40.938 104.099 81.868 326.405-7.525 427.495-111.811 143.16-147.502 257.59-325.914 176.79-537.546 114.6 90.577 28.29 327.072 37.41 280.95l63.73-17.041Z" fill="#BFA0D8"/></g><g filter="url(#A)"><path d="M1444.76 582.674c-10 73.373 40.7 25.052 1.88 95.963-17.88 32.678-248.36 221.286-270.28 248.786-115.63 102.777-256.183 134.247-371.713 81.637-23.484-10.628-44.746-24.799-65.312-40.938 104.099 81.868 322.285 26.253 423.375-78.033 143.16-147.502 261.71-359.692 180.91-571.324 114.6 90.577 28.29 327.072 37.41 280.95l63.73-17.041Z" fill="#BFA0D8"/></g><g filter="url(#B)"><path d="M1444.76 582.674c-10 73.373 40.7 25.052 1.88 95.963-17.88 32.678-248.36 221.286-270.28 248.786-115.63 102.777-256.182 134.247-371.712 81.637-23.485-10.628-54.613-22.946-75.18-39.084 104.099 81.864 327.712 30.714 428.802-73.572 143.16-147.501 266.15-366.007 185.35-577.638 114.6 90.576 28.29 327.071 37.41 280.949l63.73-17.041Z" fill="#BFA0D8"/></g><g filter="url(#C)"><path d="M1473.67 598.141c-10 73.373 40.7 25.053 1.88 95.963-17.88 32.678-252.91 208.049-274.84 235.549-115.63 102.777-251.622 147.487-367.153 94.877-23.484-10.63-44.745-24.802-65.312-40.94 104.099 81.86 273.125-.567 374.205-104.853 143.16-147.502 257.92-351.679 177.13-563.311 114.6 90.577 81.24 345.878 90.36 299.756l63.73-17.041Z" fill="#BFA0D8"/></g><g filter="url(#D)"><path d="M1458.77 596.621c-10 73.373 40.69 25.053 1.88 95.963-17.89 32.678-252.92 208.049-274.84 235.549-115.63 102.777-251.627 147.487-367.157 94.877-23.485-10.63-44.746-24.802-65.312-40.94 104.099 81.86 283.379 5.845 384.469-98.441 143.16-147.502 257.92-351.679 177.12-563.31 114.61 90.576 70.99 339.465 80.1 293.343l63.74-17.041Z" fill="#BFA0D8"/></g><g filter="url(#E)"><path d="M1452.09 587.253c-10 73.374 40.7 25.053 1.88 95.964-17.88 32.677-252.92 208.049-274.84 235.548-115.63 102.785-251.624 147.485-367.155 94.875-23.484-10.63-44.745-24.8-65.312-40.938 104.099 81.868 310.827 20.399 411.917-83.887 143.16-147.502 257.92-351.679 177.12-563.31 114.6 90.576 43.54 324.912 52.65 278.79l63.74-17.042Z" fill="#BFA0D8"/></g><g filter="url(#F)"><path d="M1452.09 587.252c-10 73.373 40.7 25.053 1.88 95.964-17.88 32.677-238.31 190.971-260.24 218.47-115.62 102.784-288.757 162.274-404.287 109.664-23.485-10.63-22.214-22.511-42.78-38.649 104.099 81.859 276.787 77.039 377.867-27.252 143.17-147.501 312.83-244.632 232.04-456.263 114.6 90.576 22.67 161.229 31.78 115.108l63.74-17.042Z" fill="#BFA0D8"/></g><g filter="url(#G)"><path d="M1452.09 587.252c-10 73.373 40.7 25.053 1.88 95.964-17.88 32.677-271.59 210.433-293.51 237.933-115.63 102.781-255.487 142.811-371.017 90.201-23.485-10.63-22.214-22.511-42.78-38.649 104.099 81.859 271.047 46.179 372.137-58.107 143.16-147.501 318.56-213.777 237.77-425.408 114.6 90.576 22.67 161.229 31.78 115.108l63.74-17.042Z" fill="#BFA0D8"/></g></g></g><g opacity=".4" stroke-width="1.641" stroke-miterlimit="10"><path d="M1235.02 487.321c4.12-25.057 16.42-46.227 47.45-61.983 104.81-53.058 228.5-52.836 317.68-142.433 45.76-46.045 68.23-108.13 70.82-173.56 11.79-309.11-197.24-427.796-286.7-442.914-91.66-15.515-162.19 86.479-200.11 162.114-46.77 93.178-85.78 195.393-164.15 264.994-82.748 73.479-259.509 255.149-316.878 357.873-40.475 72.475-74.859 200.62-34.2 270.757 40.659 70.137 152.273 82.949 228.537 100.36 76.264 17.412 59.324 353.211 135.331 329.961 102.2-31.27 144.92-172.872 168.14-268.616 23.53-97.073 34.43-196.734 35.16-296.316.17-36.828-5.91-71.146-1.08-100.237Z" stroke="url(#H)"/><path d="M1391.81-352.731c-97.63-16.555-172.77 92.268-213.23 172.775-49.89 99.191-91.36 208.276-175 282.344-88.206 78.253-266.29 243.935-327.402 353.46-43.218 77.3-72.153 207.382-28.765 282.223 38.775 66.885 140.671 82.451 212.27 102.042 73.75 20.208 66.916 317.687 141.967 299.937 103.84-24.69 157.21-149.428 191.63-237.874 34.61-88.753 55.22-183.1 64.19-279.572 3.31-35.739.59-69.499 7.03-98.91 5.34-25.117 17.65-46.86 45.96-64.53 42.68-26.567 87.01-45.989 129.87-66.683 36.59-17.607 72.14-36.389 104.68-62.52 15.79-12.651 30.59-27.634 44.92-45.293 38.8-48.118 58.73-110.547 61.42-178.272 3.78-100.481-11.06-184.538-37.86-252.715-50.09-127.841-152.52-194.737-221.68-206.412Z" stroke="url(#I)"/><path d="M1399.26-371.995c-103.59-17.595-183.43 97.918-226.35 183.43-52.94 105.336-97.01 221.016-185.771 299.818-93.658 83.026-273.193 232.813-338.125 348.999-45.832 82.035-69.37 214.276-23.411 293.548 36.969 63.769 129.281 82.002 196.009 103.722 71.314 23.139 74.533 282.538 148.531 269.798 105.557-17.98 169.277-126.05 214.977-207.065 45.4-80.62 76.07-169.336 93.28-262.7 6.39-34.429 7.04-67.63 15.13-97.581 6.69-25.265 19.08-47.802 44.52-67.298 39.23-30.048 78.13-55.389 115.04-82.011 31.26-22.458 61.04-45.609 88.64-74.981 13.04-13.988 25.35-30.48 37.47-49.465 31.95-49.699 49.16-113.097 52.1-182.847 4.05-97.83-5.36-183.634-26.14-256.576-35.89-126.839-127.19-205.476-205.9-218.791Z" stroke="url(#J)"/><path d="M1406.71-391.226c-109.69-18.548-194.09 103.567-239.68 194.033-55.99 111.48-102.72 233.974-196.616 317.154-99.031 87.93-279.968 221.61-348.719 344.456-48.446 86.769-66.667 221.033-17.982 305.006 35.088 60.519 117.846 81.774 179.834 105.537 68.752 26.153 82.277 247.32 155.17 239.82 107.343-11.15 181.213-102.61 238.453-176.369 56.26-72.357 96.91-155.579 122.49-245.924 9.4-33.255 13.49-65.763 23.1-96.169 8.03-25.412 20.37-48.656 43.03-69.843 35.76-33.527 69.26-64.784 100.34-97.419 25.8-27.22 50.02-54.691 72.61-87.437 10.5-15.277 20.06-33.104 30.23-53.588 25.19-51.145 39.67-115.512 42.78-187.421 3.98-95.142-.18-182.387-14.5-260.573-23.28-125.157-102.29-216.309-190.54-231.263Z" stroke="url(#K)"/><path d="M1414.17-410.428c-115.65-19.588-204.75 109.216-252.8 204.686C1102.14-88.167 1053 40.971 953.988 128.884 849.505 221.585 667.111 339.39 594.747 468.946c-51.189 91.59-63.889 227.929-12.683 316.554 33.207 57.274 106.366 81.771 163.72 107.133 66.14 29.39 89.841 212.437 161.939 209.767 109.297-4.04 192.947-79.22 261.797-145.595 66.71-64.196 117.54-141.882 151.36-229.125 12.48-31.947 19.94-63.898 31.07-94.759 9.25-25.474 21.65-49.512 41.59-72.612 32.27-37.362 60.34-73.956 85.52-112.737 20.63-31.798 39.13-63.857 56.38-99.94 7.96-16.564 14.9-35.814 22.78-57.757 18.71-52.41 30.11-118.065 33.47-192 4.05-92.545 4.48-180.8-3-264.489-10.85-123.172-76.52-227.173-174.52-243.814Z" stroke="url(#L)"/><path d="M1421.68-429.605c-121.62-20.629-215.42 114.87-265.93 215.348-62.29 123.724-113.95 259.596-218.111 351.891C827.7 235.11 643.892 336.83 567.656 473.274c-53.804 96.329-61.192 234.702-7.258 328.031 31.328 54.032 94.894 81.771 147.488 108.821 63.611 32.761 97.615 177.624 168.508 179.684 111.203 3.28 204.526-56.1 285.146-114.837 77.08-56.175 138.17-128.197 180.48-212.517 15.36-30.69 26.39-62.038 39.26-93.307 10.45-25.537 22.85-50.505 40.09-75.162 28.66-41.111 51.76-83.169 70.71-128.058 15.33-36.29 28.28-72.668 40.37-112.395 5.49-17.718 10.02-38.343 15.54-61.881 12.52-53.495 20.5-120.403 24.08-196.724 4.11-89.953 8.4-179.28 8.55-268.64.13-120.599-51.41-237.613-158.94-255.894Z" stroke="url(#M)"/><path d="M1429.22-448.536c-127.59-21.671-225.98 120.45-279.02 225.811-65.34 129.885-119.62 272.37-228.909 369.412C805.967 249.082 620.73 334.732 540.667 477.855c-56.424 101.077-58.551 241.721-1.912 339.407 29.531 50.931 83.303 81.867 131.272 110.52 60.958 36.222 105.345 143.058 175.167 149.758 113.066 10.83 216.246-33.09 308.636-84.181 87.52-48.384 158.95-114.615 209.58-195.714 18.36-29.523 32.75-60.319 47.22-91.914 11.8-25.689 24.07-51.503 38.61-77.72 24.98-44.999 43.14-92.167 56.03-143.476 10.17-40.871 17.62-81.793 24.36-124.86 2.95-19.009 5.07-41.01 8.1-66.06 6.68-54.622 10.94-122.974 14.91-201.419 4.17-87.372 11.69-177.927 20.04-272.598 10.39-118.674-26.32-248.433-143.46-268.134Z" stroke="url(#N)"/><path d="M1436.87-467.674c-133.71-22.627-236.72 126.345-292.23 236.729-68.4 136.054-125.21 285.297-239.793 386.82C784.054 263.062 597.33 332.867 513.514 482.814c-59.253 105.783-55.862 248.531 3.514 350.936 27.657 47.7 71.535 82.277 115.138 112.361 58.129 39.993 112.951 108.589 181.835 119.849 114.677 18.55 227.909-10.22 331.949-53.59 97.86-40.728 179.51-101.085 238.59-179.054 21.36-28.359 39.12-58.605 55.19-90.527 12.94-25.891 25.21-52.639 37.18-80.503 21.03-48.717 34.7-101.479 41.23-158.816 5.21-45.408 7.02-90.788 8.22-137.247.49-20.166.32-43.631.79-70.329.95-55.84 1.38-125.553 5.6-206.039 4.49-84.97 14.54-177.036 31.8-276.746 20.4-117.16-.99-259.439-127.68-280.783Z" stroke="url(#O)"/><path d="M1523.77 372.381c-9.34-108.826-33.89-304.766 32.81-565.825 29.78-116.152 24.3-270.235-112.03-293.357-139.69-23.672-247.42 132.023-305.48 247.301-71.53 142.094-130.88 298.099-250.597 404.379C762.286 276.996 574.12 330.737 486.47 487.378c-61.876 110.542-53.095 255.487 8.94 362.48 62.035 106.994 171.171 177.162 287.488 203.782 116.446 26.54 239.622 12.44 355.462-22.94 235.14-71.941 392.04-243.576 393.25-508.814.25-49.945-3.56-99.787-7.84-149.505Z" stroke="url(#P)"/></g><g opacity=".7"><mask id="R" style="mask-type:alpha" maskUnits="userSpaceOnUse" x="-392" y="-67" width="908" height="940"><path transform="rotate(-141.164 34.715 872.811)" fill="url(#Q)" d="M34.715 872.811h546.832v766.201H34.715z"/></mask><g mask="url(#R)"><path d="M-123.003 365.187C.399 201.401 213.02 165.442 351.861 284.875a307.416 307.416 0 0 1 39.587 41.066C254.955 247.987 73.066 292.171-37.416 438.81-147.9 585.449-149.413 784.689-49.046 910.591c-16.013-9.169-31.438-20.03-46-32.556-138.84-119.433-151.358-349.062-27.957-512.848Z" fill="url(#S)"/><g filter="url(#T)"><path d="M-113.493 373.367C9.908 209.582 213.02 165.442 351.861 284.875a307.416 307.416 0 0 1 39.587 41.066C254.955 247.987 63.557 283.991-46.926 430.63c-110.482 146.639-102.487 354.059-2.12 479.961-16.013-9.169-31.438-20.03-46-32.556-138.84-119.433-141.849-340.882-18.447-504.668Z" fill="url(#U)"/></g><g filter="url(#V)"><path d="M-108.737 377.457c123.401-163.785 335.096-208.916 473.936-89.483a307.491 307.491 0 0 1 39.588 41.067c-136.493-77.954-345.984-49.14-456.466 97.498-110.483 146.639-84.774 368.252 15.594 494.154-16.013-9.17-31.438-20.031-46-32.557-138.84-119.433-150.054-346.893-26.652-510.679Z" fill="url(#W)"/></g><g filter="url(#X)"><path d="M-108.737 377.457c123.401-163.785 335.096-208.916 473.936-89.483a307.491 307.491 0 0 1 39.588 41.067c-136.493-77.954-345.984-49.14-456.466 97.498-110.483 146.639-84.774 368.252 15.594 494.154-16.013-9.17-31.438-20.031-46-32.557-138.84-119.433-150.054-346.893-26.652-510.679Z" fill="url(#Y)"/></g><g filter="url(#Z)"><path d="M-108.737 377.457c123.401-163.785 335.096-208.916 473.936-89.483a307.491 307.491 0 0 1 39.588 41.067c-136.493-77.954-345.984-49.14-456.466 97.498-110.483 146.639-84.774 368.252 15.594 494.154-16.013-9.17-31.438-20.031-46-32.557-138.84-119.433-150.054-346.893-26.652-510.679Z" fill="url(#aa)"/></g><g filter="url(#ab)"><path d="M-74.69 389.475c123.4-163.786 301.049-220.934 439.889-101.501a307.491 307.491 0 0 1 39.588 41.067c-136.493-77.954-358.317-66.575-471.92 84.205-142.339 188.922-69.32 381.545 31.048 507.447-16.013-9.17-31.438-20.031-46-32.557-138.84-119.433-116.007-334.876 7.394-498.661Z" fill="url(#ac)"/></g><g filter="url(#ad)"><path d="M-74.691 389.475C48.71 225.689 226.884 130.79 365.724 250.223c14.562 12.526 35.442 90.253 47.245 105.011-136.493-77.954-366.5-92.768-480.102 58.012-142.34 188.922-43.008 377.175 57.36 503.077 11.148-14.797-57.45 24.895-72.012 12.369-138.84-119.433-116.308-375.432 7.094-539.217Z" fill="url(#ae)"/></g><g filter="url(#af)"><path d="M-74.691 389.475C48.71 225.689 226.884 130.79 365.724 250.223c14.562 12.526 35.442 90.253 47.245 105.011-136.493-77.954-366.5-92.768-480.102 58.012-142.34 188.922-43.008 377.175 57.36 503.077 11.148-14.797-57.45 24.895-72.012 12.369-138.84-119.433-116.308-375.432 7.094-539.217Z" fill="url(#ag)"/></g><g filter="url(#ah)"><path d="M-74.691 389.475C48.71 225.689 226.884 130.79 365.724 250.223c14.562 12.526 35.442 90.253 47.245 105.011-136.493-77.954-366.5-92.768-480.102 58.012-142.34 188.922-43.008 377.175 57.36 503.077 11.148-14.797-57.45 24.895-72.012 12.369-138.84-119.433-116.308-375.432 7.094-539.217Z" fill="url(#ai)"/></g></g></g><g filter="url(#aj)"><mask id="al" style="mask-type:alpha" maskUnits="userSpaceOnUse" x="-126" y="121" width="396" height="224"><path opacity=".8" d="m269.405 253.776-51.406-132.543L50.01 134.06l-175.066 187.456L-.034 333.73l30.997 10.532 214.801-65.172 23.641-25.314Z" fill="url(#ak)"/></mask><g opacity=".8" mask="url(#al)"><path d="M-130.308 433.991c13.317-37.058-18.488-18.21 9.605-50.352 12.946-14.812 154.116-84.277 168.6-95.876 71.725-39.11 148.597-37.84 203.126 4.187 11.091 8.511 20.631 18.59 29.591 29.609-45.332-55.865-139.373-30.794-203.669 10.934-91.037 58.996-155.555 169.07-136.71 289.768-49.855-61.738-25.53-212.079-35.378-189.141l-35.165.871Z" fill="#BFA0D8"/><g filter="url(#am)"><path d="M-116.917 445.71c13.316-37.059-18.489-18.21 9.604-50.353 12.946-14.812 154.117-84.276 168.6-95.876 71.725-39.109 148.598-37.839 203.126 4.188 11.092 8.511 20.631 18.59 29.591 29.608-45.331-55.865-171.289-37.186-235.584 4.542-91.038 58.996-170.48 137.754-151.634 258.452-49.856-61.738 21.31-174.371 11.462-151.432l-35.165.871Z" fill="#BFA0D8"/></g><g filter="url(#an)"><path d="M-116.917 445.71c13.316-37.059-18.489-18.21 9.604-50.353 12.946-14.812 154.117-84.276 168.6-95.876 71.725-39.109 148.598-37.839 203.126 4.188 11.092 8.511 20.631 18.59 29.591 29.608-45.331-55.865-171.289-37.186-235.584 4.542-91.038 58.996-170.48 137.754-151.634 258.452-49.856-61.738 21.31-174.371 11.462-151.432l-35.165.871Z" fill="#BFA0D8"/></g><g filter="url(#ao)"><path d="M-116.917 445.71c13.316-37.059-18.489-18.21 9.604-50.353 12.946-14.812 154.117-84.276 168.6-95.876 71.725-39.109 148.598-37.839 203.126 4.188 11.092 8.511 20.631 18.59 29.591 29.608-45.331-55.865-171.289-37.186-235.584 4.542-91.038 58.996-170.48 137.754-151.634 258.452-49.856-61.738 21.31-174.371 11.462-151.432l-35.165.871Z" fill="#BFA0D8"/></g><g filter="url(#ap)"><path d="M-116.917 445.71c13.316-37.059-18.489-18.21 9.604-50.353 12.946-14.812 154.117-84.276 168.6-95.876 71.725-39.109 148.598-37.839 203.126 4.188 11.092 8.511 20.631 18.59 29.591 29.608-45.331-55.865-165.411-54.307-229.707-12.579C-26.74 379.694-112.06 475.573-93.214 596.271c-49.856-61.738 21.31-174.371 11.462-151.432l-35.165.871Z" fill="#BFA0D8"/></g><g filter="url(#aq)"><path d="M-116.917 445.71c13.317-37.058-18.488-18.21 9.605-50.352 12.946-14.812 154.116-84.277 168.6-95.876 71.725-39.11 148.597-37.84 203.126 4.188 11.091 8.51 25.988 18.864 34.948 29.883-45.332-55.865-167.753-57.321-232.048-15.594-91.038 58.996-179.373 157.614-160.528 278.312-49.855-61.738 21.31-174.37 11.463-151.432l-35.166.871Z" fill="#BFA0D8"/></g><g filter="url(#ar)"><path d="M-130.308 433.991c13.317-37.058-18.488-18.21 9.605-50.352 12.946-14.812 155.036-76.79 169.52-88.389 71.724-39.11 147.677-45.327 202.206-3.3 11.091 8.511 20.631 18.59 29.591 29.609-45.332-55.865-142.695-34.109-206.99 7.619-91.038 58.996-173.496 151.168-154.65 271.866-49.856-61.738-4.269-190.862-14.117-167.924l-35.165.871Z" fill="#BFA0D8"/></g><g filter="url(#as)"><path d="M-122.693 436.662c13.317-37.058-18.488-18.209 9.605-50.352 12.946-14.812 155.036-76.79 169.52-88.389 71.725-39.109 147.677-45.326 202.206-3.299 11.091 8.51 20.631 18.589 29.591 29.608-45.332-55.865-147.346-38.75-211.642 2.978-91.037 58.996-173.495 151.168-154.65 271.866-49.855-61.738.383-186.221-9.465-163.283l-35.165.871Z" fill="#BFA0D8"/></g><g filter="url(#at)"><path d="M-120.238 442.395c13.317-37.058-18.488-18.21 9.605-50.352 12.946-14.812 155.036-76.79 169.52-88.389 71.725-39.109 147.677-45.326 202.206-3.299 11.092 8.51 20.631 18.589 29.591 29.608-45.332-55.865-160.072-49.807-224.368-8.079-91.037 58.996-173.495 151.167-154.65 271.865-49.855-61.738 13.11-175.163 3.262-152.225l-35.166.871Z" fill="#BFA0D8"/></g><g filter="url(#au)"><path d="M-120.238 442.395c13.317-37.058-18.488-18.209 9.605-50.352 12.946-14.812 145.524-69.711 160.008-81.31 71.725-39.11 168.703-48.37 223.232-6.343 11.091 8.511 9.117 14.554 18.077 25.573-45.332-55.865-136.047-75.096-200.342-33.368-91.038 58.996-190.36 88.348-171.514 209.046-49.856-61.738 5.947-87.055-3.9-64.117l-35.166.871Z" fill="#BFA0D8"/></g><g filter="url(#av)"><path d="M-120.238 442.395c13.317-37.058-18.488-18.209 9.605-50.352C-97.687 377.231 54.417 316.36 68.9 304.76c71.725-39.109 149.178-42.397 203.707-.37 11.091 8.511 9.117 14.554 18.077 25.573-45.332-55.865-136.456-58.26-200.752-16.532-91.037 58.996-189.95 71.512-171.104 192.21-49.856-61.738 5.947-87.055-3.9-64.117l-35.166.871Z" fill="#BFA0D8"/></g></g></g><g opacity=".3"><path d="M-103.701 64.186c-16.68 2.821-32.4 9.873-44.16 23.208-10.92 12.31-17.52 28.209-21.84 44.494-6.12 23.593-7.8 48.211-7.32 72.573.72 29.235 3.72 58.726-.24 87.833-7.44 55.007-33.24 106.552-58.2 154.507-5.76 11.156-12.6 21.926-21.96 30.133-11.04 9.745-24.36 13.207-38.28 15.002-6.12.769-14.52 1.667-17.64 8.334-3.36 7.181 2.04 17.567 5.52 23.849 9.48 17.182 26.16 27.055 42.48 35.39 18.6 9.36 37.08 18.592 54.12 30.901 37.32 27.055 67.8 65.265 80.04 112.195 7.08 27.183 9.6 57.956 3.48 85.652-5.4 24.491-18.84 45.776-25.68 69.753-8.16 28.465 15 45.391 36.84 54.879 27.24 11.668 56.64 16.028 85.08 22.439 53.28 12.053 106.68 25.388 158.64 42.955 23.52 7.949 47.76 16.027 72.72 15.258 21.12-.641 40.8-8.591 57.72-21.926 31.44-24.49 56.04-64.624 60.96-106.296 3.48-28.85-1.2-57.828-.6-86.807.48-28.593 8.76-54.109 20.4-79.497 10.44-23.08 22.32-45.904 27.96-71.036 5.4-24.362 4.2-49.622-1.44-73.727-6.24-26.799-17.64-51.417-27.12-76.934-9.84-26.542-13.92-55.007-14.64-83.472-.72-27.696 1.44-55.264 3.36-82.832.96-13.72 1.92-27.439 2.4-41.159.48-13.848-.12-27.696 0-41.544.12-9.873 3.48-18.721 7.56-27.44 2.4-5.129 5.52-10.899 5.28-16.797-.24-6.155-4.56-10.899-8.88-14.361-8.16-6.667-18.12-10.77-28.2-12.822-46.32-9.488-90.84 22.439-136.92 11.668-18.6-4.359-36.36-12.694-53.4-21.541-18-9.232-35.52-19.618-52.8-30.261C46.9 107.91 32.5 98.55 17.26 90.985c-19.2-9.617-39.48-17.31-60.12-22.31-19.68-5.13-40.44-7.566-60.84-4.489-.84.128-.48 1.539.36 1.41 43.08-6.539 89.28 9.617 127.44 30.133 31.8 17.054 61.56 37.954 93.72 54.238 15.72 7.95 32.16 15.515 49.2 19.49 19.44 4.616 39.24 1.282 58.44-3.078 23.64-5.385 47.52-12.437 71.88-9.616 14.4 1.667 49.32 11.412 42.36 33.594-2.16 6.796-6 12.822-8.4 19.618-3.36 9.232-3.36 18.079-3.12 27.824.6 27.055-1.44 54.11-3.24 81.037-3.72 52.314-6.6 106.296 11.16 156.303 8.76 24.746 19.92 48.339 26.52 73.856 6.84 26.413 8.64 53.853 2.16 80.651-5.88 24.875-17.88 47.314-28.2 70.266-9.96 22.311-17.88 45.006-19.32 69.881-1.56 27.824 2.76 55.52 1.32 83.216-1.2 23.465-7.8 45.391-18.84 65.65-22.56 41.544-61.08 75.01-107.88 72.959-24.84-1.154-48.6-10.002-72.12-17.823-24.96-8.335-50.52-15.259-75.96-21.926-39-10.258-78.36-18.464-117.6-27.568-14.04-3.334-28.2-7.18-41.64-12.95-12.24-5.258-25.8-12.438-33.36-24.491-9.84-15.643-2.28-33.209 4.08-48.596 8.88-21.798 18.84-42.442 21-66.419 4.32-47.442-8.64-95.398-36-132.967-24.96-34.363-59.16-58.597-95.88-76.548-16.56-7.95-34.56-16.285-46.32-32.056-6.6-8.847-18-29.363-3-34.876 9.84-3.591 20.64-2.821 30.6-6.54 20.28-7.565 32.4-26.029 42.36-45.39 11.76-23.08 23.28-46.289 33.12-70.523 9.6-23.849 17.88-48.596 22.2-74.24 4.56-27.183 2.64-54.751 1.56-82.191-.96-25.644-.48-51.16 4.92-76.292 3.84-18.079 10.2-36.287 21.96-50.391 11.76-13.977 27.72-21.413 44.88-24.362.84 0 .48-1.41-.36-1.283Z" fill="url(#aw)"/><path d="M-163.581 175.74c-3.48 27.696-.84 55.52-.96 83.344-.12 28.465-5.4 55.392-14.52 82.062-8.76 25.773-20.28 50.392-31.92 74.754-5.28 11.027-10.44 22.31-16.08 33.209-5.4 10.386-11.88 20.516-21.36 26.927-10.2 6.796-22.32 7.309-33.72 10.258-7.32 1.795-12.96 5.513-14.88 13.72-2.28 9.616 3 15.515 7.68 23.208 5.4 9.104 12 17.566 19.32 25.003 14.4 14.617 31.68 24.747 48.48 35.774 18.24 12.053 35.52 26.029 50.76 42.313 33.24 35.262 54.84 80.781 56.16 131.3.36 13.463-.96 26.799-4.68 39.749-3.36 11.668-8.04 22.824-12.12 34.107-4.92 13.592-11.28 29.107-4.44 43.083 5.4 11.027 16.32 18.079 26.4 23.336 12.84 6.54 26.52 10.771 40.2 14.361 11.64 3.077 23.28 5.385 34.92 8.078 24.96 5.898 49.8 12.438 74.52 19.49 24.36 6.924 48.96 13.591 72.72 22.567 21.6 8.078 43.08 17.951 65.88 21.157 21 2.949 41.16-1.411 59.4-13.079 16.44-10.514 30.48-25.26 41.76-41.8 11.4-16.798 20.28-35.903 24.6-56.162 5.04-24.234 4.56-49.878 5.64-74.497 1.2-26.798 3.72-53.212 13.08-78.344 8.52-22.952 20.52-44.236 29.16-67.316 8.76-23.337 12.36-47.827 9.48-72.959-2.76-24.362-10.8-47.699-19.68-70.266-4.8-12.437-10.2-24.49-14.04-37.312-3.96-13.079-6.48-26.414-8.04-40.006-3-26.285-2.16-52.955-.48-79.241 1.68-26.67 4.32-53.34 4.8-80.139.24-12.053-1.44-24.875 1.44-36.671 1.92-7.694 5.52-14.49 8.16-21.926 5.4-15.131-4.2-25.004-16.32-31.928-17.52-10.001-38.28-10.77-57.48-7.95-24.84 3.591-48.96 13.079-74.28 13.464-16.2.256-31.8-5.514-46.68-12.181-33.72-15.131-64.92-36.031-96.48-55.521C9.94 99.704-26.9 87.138-64.7 84.574c-18.12-1.283-37.68-.385-54.36 7.821-13.56 6.668-24 18.208-30.84 32.312-7.68 15.643-11.28 33.338-13.56 50.776-.12.898 1.2 1.282 1.32.385 4.8-35.646 16.56-73.6 51.96-85.524 19.44-6.54 41.04-5.514 60.84-2.693 20.64 3.077 41.16 8.847 60.6 17.053 30.72 13.079 58.32 34.364 87.24 51.033 27.72 16.028 59.16 34.876 91.68 32.953 43.08-2.436 92.88-31.671 132.96-1.41 7.2 5.385 12.96 12.309 10.56 22.182-1.68 6.668-5.16 12.694-7.44 19.105-3.24 9.104-3.6 17.567-3.36 27.183.24 12.951-.12 26.029-.84 38.98-2.64 50.135-10.08 101.039-1.56 151.046 8.52 50.006 38.4 92.704 40.8 144.506 1.2 26.67-5.52 51.545-15.84 75.395-9.12 21.156-20.16 41.415-27 63.598-7.32 23.593-8.76 48.724-9.84 73.343-.96 24.362-.48 49.879-6.36 73.728-9.96 40.39-37.92 79.882-73.56 97.833-45.24 22.696-91.8-6.539-135.12-20.13C49.54 940.201 4.9 927.378-40.1 917.377c-25.8-5.77-53.4-10.771-76.44-25.388-10.32-6.539-20.52-16.412-21-30.132-.36-9.489 3.6-19.49 6.84-28.209 3.96-11.027 8.52-21.798 12-33.081 13.32-43.468 2.64-94.372-19.08-132.71-20.52-36.031-51-64.625-84.48-86.422-17.28-11.284-34.8-21.798-49.2-37.185-7.8-8.334-13.8-17.694-19.68-27.568-3.24-5.513-6-9.616-4.32-16.54 1.92-7.694 7.08-11.027 13.92-12.694 9.72-2.436 20.04-3.077 29.28-7.694 8.04-3.974 14.4-10.514 19.56-18.079 6.12-8.847 10.44-18.977 15.12-28.722 5.52-11.54 11.04-22.951 16.44-34.62 10.32-22.182 19.92-44.749 27.12-68.214 7.68-25.003 11.16-50.007 11.04-76.42-.24-26.158-2.28-52.443.96-78.472 0-.513-1.44-.513-1.56.513Z" fill="url(#ax)"/><path d="M-151.821 188.434c-3.48 26.157-1.32 52.571-2.16 78.984-.96 27.568-7.68 53.341-17.28 78.729-9.24 24.362-20.52 47.57-31.2 71.163-8.16 17.823-14.76 42.314-31.44 53.469-9.36 6.155-20.28 6.411-30.84 8.463-6.6 1.282-14.76 2.949-17.28 10.514-2.28 6.796-1.2 17.951 1.08 24.618 1.08 3.078 3.12 5.258 5.28 7.309 4.68 4.36 6.96 10.386 10.32 15.9 10.2 16.54 24.24 29.619 39.12 41.287 16.56 13.079 33.36 25.388 48.72 40.134 15.84 15.258 30.48 32.184 42.36 51.16 6 9.489 11.4 19.49 15.96 29.876 5.16 11.925 8.4 24.491 10.92 37.313 2.52 12.95 4.08 26.414 3.12 39.621-.96 13.078-4.8 25.516-8.76 37.953-4.56 14.233-13.32 32.569-7.08 47.699 4.44 10.899 14.64 17.951 24.12 23.08 12.48 6.668 26.04 10.899 39.48 14.617 11.64 3.206 23.52 5.642 35.28 8.591 24 6.283 47.88 13.207 71.64 20.644 22.32 7.052 45 13.848 66.48 23.208 19.68 8.719 39.36 19.105 60.72 22.054 39 5.386 72.84-23.336 93.72-55.776 10.56-16.413 18.84-35.133 22.2-54.751 4.08-23.593 5.88-47.827 9.12-71.548 3.24-24.106 6.24-48.981 14.4-71.933 7.92-22.439 19.68-43.211 28.2-65.393 8.64-22.311 12.72-45.775 10.44-69.881-2.28-23.593-9.72-46.032-18.12-67.702-4.68-12.052-9.96-23.721-13.8-36.158-4.08-12.951-6.84-26.286-8.4-39.749-3-25.388-2.16-51.033-.36-76.549 1.68-25.388 4.32-50.648 4.92-76.164.24-11.796-1.08-23.849 1.92-35.389 1.92-7.309 5.28-13.976 7.32-21.285 4.44-15.515-6.48-25.901-18.36-32.825-16.8-9.617-36.72-10.642-55.32-7.821-24.72 3.718-48.72 13.335-74.04 12.95-15-.256-29.76-6.539-43.32-13.079-31.32-15.002-60.36-35.004-89.88-53.725-12.84-8.206-25.68-15.515-40.08-20.515-18.72-6.411-38.4-10.13-58.08-11.54-32.4-2.308-68.88.769-86.88 33.85-8.16 14.746-11.64 31.799-14.16 48.597-.12.897 1.2 1.282 1.32.384 2.52-17.566 6.36-35.646 15.36-50.776 8.88-15.002 22.68-24.49 38.88-28.209 19.44-4.359 40.2-3.462 59.76-.897 19.44 2.564 39 7.308 57.12 15.515 12.84 5.77 24.6 14.104 36.48 21.797 14.52 9.361 29.04 18.849 43.92 27.696 14.16 8.463 28.56 16.541 43.68 23.08 12.48 5.386 25.32 9.745 39 9.361 42.48-.898 90.12-30.645 129.96-2.18 7.2 5.129 15.12 12.437 14.16 22.567-.72 7.309-4.44 14.104-6.72 20.772-2.88 8.334-3.72 16.412-3.6 25.26.12 12.566-.24 25.003-1.08 37.569-2.76 47.955-9.96 96.551-1.68 144.378 4.32 24.747 14.16 46.673 22.92 69.881 8.52 22.696 15.6 46.288 16.32 70.907.72 25.645-6.239 49.366-16.32 72.317-8.88 20.131-19.2 39.621-25.68 60.778-6.72 22.31-9.36 46.288-12.36 69.368-3 22.695-4.44 46.032-8.88 68.471-7.92 39.877-34.32 78.6-68.04 97.705-20.28 11.54-41.52 12.053-63.36 5.129-20.04-6.283-38.64-17.054-58.32-24.106-42.12-15.258-85.44-28.722-128.76-39.236-25.2-6.026-52.32-10.899-74.76-25.26-9.96-6.411-19.56-16.156-19.32-29.491.24-10.642 4.56-21.669 7.8-31.671 3.48-10.899 7.2-21.797 9.12-33.209 3.84-23.337-.72-47.186-6.84-69.625-5.52-20.515-16.44-39.621-28.32-56.546-23.16-33.209-53.16-57.315-84.12-81.549-16.2-12.694-31.56-26.799-42-45.391-2.4-4.103-3.84-8.463-7.2-11.668-4.32-3.975-6.48-7.693-7.32-13.72-.72-4.872-1.44-10.001-.6-15.002 1.32-7.95 7.68-10.129 14.16-11.796 9.48-2.308 19.44-2.18 28.44-6.155 6.84-3.077 12.36-8.206 16.8-14.489 5.16-7.309 8.76-15.771 12.24-23.978 4.68-10.77 9.6-21.541 14.64-32.183 20.04-43.34 40.8-87.704 42.36-136.942.84-26.157-1.44-52.443 2.16-78.6.24-.769-1.2-1.154-1.32-.256Z" fill="url(#ay)"/><path d="M-140.062 201.384c-3.6 24.875-1.8 50.007-3.6 75.01-1.92 26.542-10.44 51.289-20.4 75.395-9.36 22.567-20.04 44.493-29.52 66.932-7.08 16.925-11.88 39.108-28.56 48.211-9.12 5.001-19.56 4.488-29.4 6.027-6 .897-15 2.436-18.36 8.719-3.24 5.898-.96 14.361.72 20.387 1.92 7.309 3 16.669 8.28 22.311 2.52 2.564 5.64 4.231 8.28 6.668 4.32 4.103 7.08 11.155 10.44 16.156a225.42 225.42 0 0 0 19.56 24.875c13.8 15.386 29.28 28.721 43.92 43.211 15.12 15.002 29.52 31.029 42.12 48.596 13.2 18.207 26.52 39.108 32.64 61.29 3.48 12.438 7.08 24.747 8.4 37.697 1.44 13.079-.24 25.773-3.24 38.467-2.64 11.412-6.12 22.567-7.92 34.235-.84 5.77-1.08 11.156 1.08 16.541 4.08 10.386 13.8 17.182 22.8 22.054 12.36 6.668 25.8 10.899 39.12 14.489 12.12 3.334 24.36 6.027 36.36 9.489a1275.43 1275.43 0 0 1 67.92 21.926c21.24 7.565 42.36 15.13 62.4 25.773 16.8 8.975 34.32 18.848 53.4 20.643 35.88 3.334 67.68-28.85 85.44-58.982 9.72-16.412 16.32-34.363 19.08-53.597 3.12-22.439 7.92-44.493 12.84-66.547 4.8-21.67 8.4-44.493 15.36-65.522 7.56-22.567 19.32-43.211 27.96-65.393 8.16-20.9 12.36-42.698 10.56-65.265-1.8-22.696-8.64-44.365-16.68-65.265-9-23.593-18.36-45.904-21.84-71.42-3.36-25.388-2.52-51.161-.6-76.677 1.8-24.747 4.44-49.365 5.04-74.112.24-11.027-.48-21.926 2.52-32.697 2.04-7.309 5.4-14.233 6.6-21.798 2.52-15.771-11.28-27.055-23.16-33.209-16.2-8.463-35.04-8.976-52.68-6.155-23.4 3.975-46.68 13.207-70.68 11.925-13.8-.77-27.48-7.181-39.84-13.335-29.52-14.874-56.88-34.108-84.6-52.443-11.28-7.437-22.44-15.002-35.04-19.618-17.16-6.283-35.52-8.848-53.52-9.873-30.36-1.667-69.72-2.052-88.44 28.208-8.52 13.977-12.12 30.646-14.76 46.673-.12.898 1.2 1.283 1.32.385 2.64-16.669 6.36-33.979 15.72-47.955 10.44-15.387 26.04-21.798 43.08-24.106 18.6-2.564 37.56-2.564 56.16-.513 17.76 1.924 36.36 5.514 52.44 14.233 11.28 6.026 21.84 13.72 32.52 20.772 13.56 9.104 27.24 18.207 41.04 26.798 13.56 8.463 27.48 16.541 42 23.08 10.44 4.745 21.48 9.104 32.88 9.489 42 1.538 86.4-28.978 126.48-3.334 7.8 5.001 17.28 12.822 18 23.465.48 7.052-2.64 13.848-4.8 20.387-6.48 19.233-4.32 39.749-5.52 59.88-2.88 46.673-10.2 93.858-2.04 140.403 4.2 23.849 14.04 45.134 22.32 67.445 7.92 21.541 14.4 43.98 15 67.317.6 24.746-6.48 47.698-16.2 69.881-8.64 19.489-18.6 38.338-24.6 58.982-6 20.772-9.72 42.57-14.4 63.598-4.68 21.285-9 42.57-12.12 64.111-5.64 38.852-29.64 76.549-60.96 97.193-17.88 11.796-36.96 15.515-57.24 9.232-19.08-5.898-35.88-17.31-54-25.645-19.32-8.847-39.72-15.515-59.76-22.31-20.16-6.924-40.56-13.592-61.08-19.106-24.72-6.667-51.36-10.898-73.68-25.131-9.84-6.283-19.32-15.643-18.48-28.978 1.32-22.696 12.12-43.468 12.36-66.548.12-11.283-2.04-22.439-4.68-33.337-2.52-10.13-4.92-20.26-9.12-29.748-8.52-19.105-19.44-36.928-31.92-53.469-12.48-16.669-26.52-31.927-41.28-46.416-13.68-13.463-28.2-26.029-41.16-40.518-7.68-8.591-14.76-17.695-21.12-27.312-2.64-3.975-4.68-9.232-7.68-12.694-2.76-3.205-7.08-4.872-9.96-8.078-3.24-3.718-3.84-8.719-5.16-13.335-1.32-4.488-2.64-8.975-3.6-13.719-.84-4.36-1.68-9.874.84-13.849 3.12-4.872 10.44-6.282 15.48-7.18 9.12-1.667 18.72-1.154 27.48-4.616 6.48-2.564 11.88-7.052 16.08-12.822 4.56-6.283 7.56-13.72 10.44-21.029 3.84-10.001 7.8-19.746 12.12-29.491 18.36-41.672 41.16-83.601 44.64-130.402 1.8-24.875 0-49.878 3.6-74.625.12-.898-1.2-1.282-1.44-.385Z" fill="url(#az)"/><path d="M-128.3 214.334c-4.08 24.875-2.16 50.263-6 75.139-3.84 25.003-14.28 48.724-24.36 71.419-9.12 20.516-19.08 40.775-26.16 62.06-5.64 16.925-11.16 36.287-29.4 41.544-8.76 2.564-17.88 1.795-26.76 3.077-6 .898-14.28 2.693-18 8.335-3.12 4.744-1.8 11.283-.36 16.412 2.16 8.206 5.88 15.771 8.64 23.593 2.4 6.796 4.2 11.54 10.08 15.771 8.28 6.027 14.88 12.694 21.36 20.901 13.2 16.54 24.12 35.004 37.2 51.673 12.6 16.156 26.52 31.03 39.12 47.314 13.92 18.079 26.88 37.185 37.68 57.7 2.4 4.616 4.92 9.232 6.96 14.105 2.52 5.77 4.08 12.052 6 18.079 3.72 11.668 7.68 23.593 7.44 36.159-.12 12.822-3.12 25.388-5.04 38.082-1.2 7.565-3 16.027-1.2 23.464 2.64 10.771 12 17.823 20.64 22.696 11.88 6.667 24.96 10.898 37.8 14.617 12.6 3.59 25.2 6.539 37.68 10.514 21.48 6.924 42.84 14.617 63.84 23.08 18.96 7.693 37.2 15.643 54.6 26.67 14.4 9.104 29.76 19.234 46.8 21.029 16.68 1.795 32.52-6.411 45.6-16.797 14.16-11.156 26.04-25.517 35.16-41.544 9.24-16.285 14.4-33.21 17.52-51.802 3.24-20.131 9.48-39.621 15.36-58.854 6-19.618 11.16-39.364 16.32-59.239 5.76-22.054 16.68-41.928 25.68-62.572 8.64-19.875 14.88-40.775 14.88-62.957-.12-22.567-6-44.365-13.56-65.265-8.16-22.439-18.24-43.596-22.32-67.445-4.2-24.363-3.72-49.238-2.16-73.728 1.56-24.106 4.44-48.212 5.52-72.446.48-11.411-.24-22.823 2.52-33.979 1.8-7.308 4.8-14.36 5.88-21.926 2.16-15.771-10.2-27.567-22.08-34.491-15.6-8.976-33.96-10.13-51.12-7.437-22.92 3.59-45.48 12.95-69 11.668-12.6-.641-24.84-6.668-36-12.309-28.56-14.618-54.96-33.723-81.6-52.059-9.72-6.667-19.56-14.232-30.24-19.105-15.48-7.18-33.12-8.847-49.8-9.36-18.24-.513-36.6 1.026-54.6 4.103-13.92 2.436-26.52 8.078-35.28 20.388-8.88 12.822-12.6 28.593-15.24 43.723-.12.898 1.2 1.283 1.32.385 2.76-16.284 6.84-33.722 17.4-46.288 11.64-13.848 28.2-16.413 44.64-18.336 32.4-3.975 70.8-6.026 99.96 12.181 24.12 15.002 46.92 32.312 70.92 47.571 12.84 8.206 25.92 16.027 39.72 22.31 9.72 4.488 19.92 8.463 30.6 8.591 40.44.641 84.24-28.593 122.04-1.41 7.8 5.641 16.44 13.848 17.04 24.618.36 7.565-2.76 15.131-4.8 22.183-5.52 19.233-3.72 40.262-5.16 60.264-3.36 45.006-10.2 91.166 0 135.788 5.16 22.438 15.6 42.954 22.92 64.624 7.2 21.284 12.12 43.595 10.68 66.419-2.88 44.877-32.4 80.139-41.76 123.093-8.4 38.338-24.6 74.625-30.48 113.605-5.76 38.21-27.84 74.753-58.8 95.141-16.56 10.899-33.84 14.617-52.44 7.693-17.04-6.411-31.56-18.207-47.64-26.927-17.04-9.232-35.64-15.899-53.52-22.823-18.72-7.181-37.68-14.105-56.88-19.746-24.48-7.181-51.84-11.156-73.44-26.414-4.8-3.462-9.48-7.693-12.12-13.335-3.84-8.078-1.92-17.567-.6-26.158 1.56-10.514 3.84-20.772 4.8-31.414 1.08-11.027-.24-21.285-3.12-31.927-2.64-9.617-5.16-20.131-9.12-29.235-4.32-10.258-9.84-20.131-15.48-29.619-10.44-17.695-22.32-34.236-34.8-50.135-12-15.13-25.32-29.235-36.96-44.622-12.48-16.54-23.16-34.363-36.24-50.391-5.64-6.924-11.16-13.207-18.48-18.079-4.44-3.078-8.04-6.155-9.84-11.668-1.08-3.206-2.16-6.54-3.36-9.745-3-7.822-6.84-15.772-7.92-24.234-1.44-11.412 7.8-15.387 16.92-17.054 15.36-2.693 31.92.385 43.68-12.822 9.6-10.771 12.6-26.414 17.64-39.877 16.2-43.339 42.96-84.499 48.84-131.556 2.88-23.337 1.56-46.93 5.28-70.266.12-.898-1.2-1.282-1.44-.385Z" fill="url(#aA)"/><path d="M-116.42 227.285c-4.32 23.849-3.12 48.468-8.88 71.933-5.76 23.593-16.8 45.647-26.64 67.573-8.4 18.72-16.08 37.569-21.84 57.443-5.28 18.208-12.96 34.107-32.4 36.415-12.48 1.539-33.6-2.692-42.36 10.002-6.48 9.232 2.04 24.618 6 33.081 3.24 6.924 6.72 13.592 9.24 20.772 2.4 6.668 6.36 10.643 12 14.233 17.52 11.155 29.76 28.337 40.68 46.544 9.84 16.285 19.08 32.697 29.88 48.34 12 17.438 24.12 34.748 35.52 52.7 6.24 9.873 12.24 19.874 17.88 30.132 2.64 4.744 5.16 9.488 7.56 14.232 2.64 5.129 3.96 10.771 6.12 16.285 3.84 10.001 8.52 19.746 9.12 30.645.6 12.181-1.2 24.49-1.56 36.671-.24 6.924-.72 14.105 2.4 20.388 2.28 4.359 5.76 7.949 9.48 10.899 10.44 8.206 23.4 12.694 35.64 16.668 12.48 3.975 25.32 6.924 37.8 11.027 20.4 6.668 40.56 15.003 60.12 23.978 16.68 7.693 33.36 15.259 48.24 26.542 13.08 9.873 26.64 21.541 42.72 25.003 15.36 3.334 30-3.974 42.36-13.078 13.92-10.258 25.68-23.978 34.8-39.236 9.36-15.643 15.12-32.312 18.12-50.52 3-18.207 9.96-35.646 16.56-52.699 6.72-17.31 14.16-34.62 19.08-52.699 2.52-9.361 4.44-18.849 7.8-28.081 3.84-10.643 8.64-20.772 13.44-30.902 8.76-18.848 17.28-38.082 19.92-59.238 2.64-21.542-.84-43.083-7.08-63.599-6.96-22.438-18-43.467-23.64-66.29-5.76-23.337-6.36-47.571-5.04-71.548 1.2-23.465 4.2-46.93 5.76-70.394.84-11.669.12-23.722 2.16-35.133 1.44-8.463 4.56-16.541 5.76-25.004 2.04-15.643-8.04-27.824-19.8-35.774-14.76-10.001-32.76-11.924-49.68-9.616-21.96 2.949-42.96 11.54-65.28 11.54-12.12 0-23.64-5.257-34.32-10.771-27.36-14.104-52.56-32.825-77.88-50.776-9.96-7.052-19.92-14.361-30.36-20.644-12.6-7.565-27.24-9.232-41.4-9.36-17.52-.128-35.04 2.18-52.32 5.257-14.52 2.436-29.28 4.488-39.72 16.669-9.6 11.027-13.2 26.157-15.96 40.39-.24.898 1.2 1.282 1.32.385 3-15.515 7.2-32.569 18.84-43.339 12.24-11.284 30.84-12.182 46.2-14.49 17.64-2.692 35.76-4.616 53.52-2.82 13.92 1.282 25.44 6.154 37.2 13.976 23.88 15.899 46.68 33.466 70.8 48.981 19.92 12.822 43.08 28.85 67.2 27.952 38.64-1.41 81.84-28.081 116.52 2.308 7.08 6.283 13.68 14.489 13.8 24.747.12 8.078-2.88 16.028-4.68 23.721-2.16 9.232-2.4 18.208-2.76 27.696-.48 11.412-1.32 22.695-2.4 34.107-3.96 44.109-9.6 89.628 3.84 132.582 6.6 21.157 16.68 40.903 22.56 62.444 6.12 22.183 8.28 45.391 3.24 68.214-4.8 21.542-15.12 40.775-24 60.65-3.72 8.462-7.32 16.925-10.08 25.9-2.76 8.72-4.32 17.695-6.96 26.414-10.56 33.851-28.8 65.65-34.08 101.039-5.64 36.928-28.56 72.959-59.16 91.551-7.8 4.744-16.44 8.719-25.56 8.847-8.76.129-17.28-3.205-24.96-7.437-14.04-7.821-25.68-19.489-39.48-27.696-16.2-9.616-33.96-17.053-51.12-24.234-16.56-7.052-33.24-13.848-50.4-18.848-12.84-3.719-25.68-6.924-38.28-11.412-11.88-4.231-25.44-9.36-34.08-19.49-4.92-5.898-5.76-12.053-5.76-19.746 0-11.925 1.44-23.721 1.68-35.646.24-10.258-2.16-19.233-5.88-28.722-3.12-7.821-5.28-16.412-9-23.849-19.2-37.954-43.68-72.317-67.56-106.937-19.92-28.85-33.48-66.932-63.6-85.653-3.6-2.179-7.08-4.487-9.6-7.949-2.28-3.078-3.12-6.924-4.56-10.386-2.76-6.796-6.24-13.207-9.24-19.875-3-6.667-6.72-14.361-6.6-21.926.12-10.258 11.28-13.591 19.2-14.617 14.28-1.924 30.12 1.538 42.24-8.719 10.44-8.976 13.68-23.978 17.52-37.057 12.24-42.313 38.64-79.369 47.52-122.708 4.56-22.183 3.72-45.006 7.8-67.189.24-1.282-1.08-1.667-1.2-.769Z" fill="url(#aB)"/><path d="M-104.662 240.235c-4.8 22.824-4.8 46.545-12.72 68.471-7.8 21.798-18.6 42.442-27.6 63.726-3.96 9.361-7.8 18.849-10.8 28.594-2.28 7.437-3.84 15.258-5.88 22.824-2.16 7.949-4.92 16.027-10.32 22.054-6.36 7.052-15 9.488-24 9.873-13.2.641-31.8-2.949-41.76 8.975-6.6 7.95-.6 20.901 3 28.85 3.24 7.181 7.08 13.977 10.8 20.772 3.24 6.027 5.52 12.438 8.52 18.464 3.12 6.155 8.64 9.874 14.28 13.079 8.28 4.744 15.24 10.386 21.72 17.695 12.48 14.232 20.88 31.671 28.92 48.981 8.16 17.694 17.4 34.748 27.12 51.673 11.4 19.875 23.04 39.621 34.2 59.495 2.76 5.001 5.52 9.873 8.28 14.874 2.4 4.36 3.6 8.976 5.76 13.463 4.56 9.489 10.08 17.439 11.04 28.466.96 11.796 1.2 23.593 3 35.261.84 5.385 2.64 9.873 6.24 13.848 8.28 9.232 20.76 13.976 31.8 17.951 13.2 4.744 26.88 8.078 40.2 12.438 18.6 6.026 36.6 14.745 54 23.849 15.36 8.078 30.6 16.028 43.68 28.081 10.44 9.616 21 20.772 34.08 26.157 14.16 5.77 27.6.256 39.84-7.95 14.04-9.488 25.92-22.567 35.16-37.184 9.36-14.874 15.96-31.415 18.72-48.981 2.52-16.541 9.84-32.056 16.8-46.93 7.32-15.771 15.36-31.158 21.72-47.442 6.72-16.925 9.84-35.004 17.04-51.802 8.16-18.848 18.12-36.928 23.52-57.058 5.4-20.131 5.28-41.16.84-61.419-4.8-21.926-13.92-41.8-21.6-62.572-8.28-22.439-10.8-46.673-10.32-70.651.48-22.952 3.36-45.775 5.52-68.599 1.08-11.54 1.44-23.08 2.28-34.748.72-9.745 3.6-18.849 5.16-28.337 6.12-35.518-31.68-54.11-59.52-52.699-21.24 1.025-41.52 9.745-62.76 11.411-13.2 1.154-24-2.051-35.88-8.078-26.4-13.206-50.52-31.67-74.4-49.237-10.32-7.565-20.52-15.258-31.08-22.439-10.2-6.924-20.16-10.899-32.4-11.412-17.4-.769-34.8 2.95-51.72 6.54-8.04 1.795-15.96 3.59-24 5.257-6.72 1.41-12.96 3.59-18.36 8.078-11.16 9.488-15.12 24.619-18.12 38.338-.24.898 1.08 1.283 1.32.385 3.48-15.643 8.28-32.953 22.8-40.775 7.32-3.975 15.84-4.872 23.64-6.667 8.16-1.795 16.32-3.719 24.6-5.257 16.68-3.206 34.92-6.54 51.84-2.565 10.8 2.565 19.92 9.745 28.92 16.284 23.04 16.541 45.6 33.979 69.36 49.366 10.56 6.924 21.48 13.463 33 18.592 11.28 5.001 21.36 6.411 33.6 5.001 20.04-2.308 39.24-10.258 59.4-11.155 17.88-.898 35.64 4.487 48.24 18.335 6.84 7.565 11.4 16.285 10.56 27.055-.6 8.719-3.48 17.182-4.92 25.901-1.68 10.001-1.44 20.131-2.16 30.261-.84 10.898-1.92 21.797-3 32.696-4.32 43.083-6.96 85.909 9.48 126.684 8.16 20.131 16.44 40.518 20.28 62.188 3.96 22.567 1.8 45.006-6 66.419-6.96 18.977-16.92 36.543-24 55.52-3.24 8.719-5.16 17.695-7.68 26.67-2.16 7.565-5.04 14.874-8.16 21.926-12.48 28.85-30.6 56.803-35.64 88.602-5.64 36.03-29.76 71.676-60.36 88.217-7.92 4.231-16.2 7.18-25.2 5.257-7.2-1.539-13.68-5.514-19.68-10.002-11.4-8.59-20.76-20.131-32.52-28.08-15.24-10.258-32.04-18.721-48.48-26.414-14.52-6.924-29.28-13.207-44.64-17.823-13.32-3.975-26.76-7.565-39.72-12.822-10.68-4.36-25.56-10.771-29.28-23.593-3.24-11.155-2.88-24.106-3.6-35.646-.6-8.847-2.28-15.643-6.36-23.465-4.2-7.949-7.08-16.412-11.4-24.105-5.4-9.873-11.04-19.747-16.68-29.491-10.8-18.721-21.72-37.313-32.28-56.034-8.64-15.514-16.32-31.542-24-47.57-7.56-15.9-16.08-31.414-27.96-43.98-5.64-6.027-11.64-10.643-18.72-14.618-8.04-4.616-12.84-9.103-16.44-18.079-5.16-12.566-12.84-23.849-18.24-36.287-2.64-6.026-6-13.848-4.44-20.644 2.16-8.975 13.56-11.668 20.88-12.437 13.92-1.411 29.64 2.436 42.12-6.411 10.32-7.437 14.04-20.9 17.04-33.21 4.8-19.361 11.52-37.569 19.68-55.648 8.52-19.105 18.36-37.954 24.72-58.085 6.6-20.644 6.72-42.698 11.16-63.855.48-1.154-.96-1.538-1.08-.641Z" fill="url(#aC)"/><path d="M-92.901 253.186c-2.76 11.155-4.56 22.695-7.08 33.851-2.76 11.796-6.96 22.695-12 33.594-9.12 19.874-19.2 39.364-26.52 60.008-5.4 15.258-6.96 31.543-12.24 46.801-2.64 7.437-6.72 14.489-13.32 18.592-7.56 4.744-16.56 4.744-25.08 4.616-12.6-.384-30.36-2.436-39.24 9.873-5.64 7.95-.6 19.618 2.88 27.312 6 13.335 14.28 25.259 21 38.21 2.88 5.385 4.56 11.668 8.4 16.412 4.8 5.77 11.4 8.976 17.76 12.438 33 18.336 42.84 56.931 56.04 90.909 7.44 19.106 16.08 37.826 25.32 56.034 5.16 10.129 10.56 20.13 16.08 30.004 3 5.257 6 10.386 9 15.643 1.68 2.949 2.76 6.026 4.44 8.975 3.48 6.155 9.72 10.001 12.48 16.797.72 1.795.6 3.334.96 5.129.48 2.308 1.68 4.744 2.4 7.052 1.56 5.514 2.52 11.284 3.84 16.926 1.44 6.283 3 12.181 7.2 16.925 3.96 4.488 9.24 7.693 14.52 10.258 12.84 6.539 26.88 10.258 40.44 14.361 16.68 5.129 32.64 11.924 48.12 20.515 8.16 4.616 16.08 9.489 23.88 14.874 6.96 4.744 14.16 9.232 20.16 15.259 9.72 10.001 17.64 21.797 28.56 30.26 10.8 8.334 21.36 9.36 33.48 3.462 15.12-7.309 27.96-19.618 38.16-33.594 10.08-13.72 17.88-29.748 21.72-46.801 1.44-6.796 2.16-13.464 4.44-19.875 2.64-7.693 6.24-15.002 9.96-22.31 7.8-15.131 16.56-29.748 24.6-44.75 6.96-13.079 11.88-25.773 15.72-40.134 5.52-20.643 16.08-39.107 24.24-58.597 7.92-19.233 12.48-39.236 10.68-60.393-1.8-21.413-8.88-41.672-16.68-61.418-4.32-11.027-9-21.798-11.76-33.338-2.76-11.54-4.08-23.593-4.56-35.518-.72-23.08 2.04-46.031 4.56-68.855 1.2-11.283 2.4-22.567 3-33.979.6-10.514 2.64-20.644 4.32-30.901 2.76-16.926-1.44-30.645-13.32-42.442-11.04-10.899-25.56-15.771-40.32-16.028-20.04-.256-39.24 7.694-58.92 10.386-14.16 1.924-24.96.129-37.68-6.283-25.2-12.565-48.12-30.773-70.8-47.826-10.56-7.95-21-16.028-31.68-23.722-8.52-6.026-16.56-11.924-27-13.078-15.72-1.667-31.92 3.077-46.92 7.437-7.92 2.308-15.84 4.872-23.76 7.052-6.6 1.795-13.8 2.693-19.92 6.026-11.88 6.668-16.2 20.901-19.56 33.851-.24.898 1.08 1.282 1.32.385 4.32-16.797 10.32-31.799 27.72-35.903 15.48-3.718 30.48-8.847 45.84-12.822 14.28-3.718 31.92-8.078 46.08-1.41 9 4.231 17.16 11.155 25.2 17.182 22.44 16.797 44.52 34.363 67.92 49.75 9.84 6.539 19.92 12.822 30.72 17.438 11.04 4.744 20.88 5.385 32.76 3.718 19.56-2.692 38.76-10.642 58.68-10.386 17.28.257 33.6 7.053 44.64 21.542 6.36 8.334 9.48 17.438 8.52 28.209-.72 9.103-3.24 18.079-4.44 27.183-1.32 10.642-1.44 21.413-2.52 32.055-1.08 10.899-2.4 21.798-3.48 32.825-2.28 21.926-3.72 44.237-1.08 66.291 2.64 21.67 10.8 40.39 18.36 60.393 7.56 19.874 13.8 40.774 13.8 62.444 0 23.08-8.04 43.852-17.4 64.111-7.92 17.182-15.24 33.851-19.8 52.315-3.48 14.232-11.16 27.439-18.12 40.005-7.8 14.105-16.08 27.824-23.04 42.313-2.88 5.899-5.52 11.797-7.56 18.08-2.16 6.411-2.76 12.95-4.2 19.49-4.32 18.592-13.56 36.03-25.2 50.519-10.68 13.207-25.44 26.927-41.76 31.286-15.12 3.975-27.84-8.847-37.32-19.618-8.88-10.001-16.68-19.489-27.48-27.183-15.48-10.899-31.44-20.772-48.36-28.85-12.96-6.154-26.28-10.514-39.96-14.617-13.44-4.103-27.72-8.078-39.48-16.156-6.24-4.231-10.08-9.232-12.12-16.797-1.32-4.488-2.16-9.232-3.12-13.848-1.2-5.642-3.24-11.027-4.32-16.541-1.2-5.77-4.08-9.617-7.8-13.976-5.16-5.898-8.04-12.438-12-19.233-11.28-19.106-21.72-38.724-31.32-58.726-8.28-17.31-15.72-35.005-22.2-53.212-5.52-15.515-11.04-31.287-19.44-45.391-8.28-13.848-19.2-25.516-32.88-33.081-7.08-3.847-14.52-7.566-18.96-15.002-3-5.129-4.92-11.156-7.8-16.413-6.84-12.437-14.76-24.234-20.28-37.313-2.28-5.513-4.92-12.437-3.6-18.592 1.8-8.462 11.4-12.053 18.48-13.207 14.28-2.308 29.64 2.693 43.44-3.205 11.16-4.744 16.56-16.028 19.68-27.696 4.2-15.9 6.84-31.543 12.72-46.93 8.04-21.028 18.6-40.774 27.6-61.29 8.4-19.105 10.68-39.62 15.6-59.88-.48-.769-1.8-1.154-2.04-.256Z" fill="url(#aD)"/><path d="M-81.141 266.136c-3.36 10.643-6.12 21.542-10.08 31.928-4.2 10.899-9.96 21.028-15.24 31.286-9.36 18.336-18.48 37.569-23.16 57.956-3.24 14.233-3.6 30.261-10.68 43.211-8.88 16.156-25.8 15.515-41.28 14.746-12.24-.641-28.92-1.411-36.96 10.771-5.04 7.565-1.08 18.207 2.16 25.772 5.76 13.464 14.04 25.516 21.6 37.954 3.12 5.129 6.36 10.258 8.88 15.771 3 6.412 5.52 12.053 11.04 16.669 5.76 4.744 12.6 7.694 18.96 11.156 7.92 4.359 15 10.257 21 17.31 11.64 13.719 18.36 31.029 23.28 48.596 4.8 17.182 8.52 34.748 14.04 51.802 6.24 19.105 13.92 37.569 23.28 55.135 4.68 8.719 9.84 17.438 15 25.773 2.16 3.59 6.12 5.385 9.36 7.693 5.76 4.231 9 12.309 12.24 18.977 3.36 6.924 6.12 14.874 11.52 20.516 9.36 9.744 23.88 13.848 36 17.694 15.72 5.129 31.32 9.489 46.08 17.567 16.32 8.847 31.92 20.643 45.24 33.979 8.64 8.719 14.159 20.772 21.839 30.516 6.48 8.078 15.361 16.926 26.161 15.131 14.4-2.308 28.56-15.131 38.28-25.901 11.52-12.822 20.64-28.337 26.04-45.134 2.28-7.053 2.88-14.49 4.919-21.67 1.8-6.539 4.8-12.822 8.041-18.72 14.039-26.542 34.199-49.494 46.199-77.318 2.641-6.155 3.841-12.566 5.641-19.106 3-10.514 7.44-20.515 12-30.388 8.639-18.849 17.879-37.569 20.4-58.726 2.4-20.131-1.44-40.134-7.681-58.982-7.08-21.542-17.759-41.672-21.24-64.368-3.479-22.823-1.68-46.031.84-68.855 2.52-22.824 4.081-46.032 7.681-68.727 2.639-17.182 2.879-31.928-7.561-46.288-9-12.438-22.2-19.875-36.72-21.798-18.72-2.436-36.96 4.231-55.199 7.821-8.881 1.795-18.72 3.719-27.72 1.924-4.8-1.026-9.48-2.949-14.041-5.129-24.479-11.925-46.559-30.004-68.16-46.801-10.56-8.207-21-16.541-31.56-24.619-7.2-5.514-15.36-12.95-24.12-15.258-12.84-3.462-27.36 1.666-39.48 6.026-14.52 5.257-28.68 12.053-43.68 16.028-13.92 3.462-18.84 14.489-23.16 28.08-.24.898 1.08 1.283 1.32.385 2.4-7.693 4.92-16.412 11.04-21.926 5.76-5.257 14.04-5.898 21-8.334 14.52-5.001 28.56-11.797 43.32-16.156 12.96-3.847 26.16-6.283 38.04 1.538 8.64 5.642 16.8 12.181 24.96 18.464 21.84 17.054 43.32 34.492 66.241 49.879 9.239 6.154 18.72 12.053 28.799 16.284 11.88 4.872 23.88 3.59 36.241 1.154 19.199-3.718 38.4-11.027 58.079-7.693 16.8 2.949 32.041 14.104 39.241 30.901 4.319 9.873 3.599 20.516 2.039 31.03-1.32 9.232-2.639 18.336-3.359 27.824-1.681 21.67-5.161 43.211-6.841 64.881-1.56 20.772-1.44 41.928 3.6 62.059 5.16 20.772 15.48 39.749 21.36 60.393 6.24 21.926 7.921 44.749 1.68 66.932-5.639 19.874-15.96 37.697-23.64 56.674-5.52 13.72-7.679 28.465-14.519 41.672-6.84 13.079-15.001 25.388-23.041 37.698-7.919 12.181-16.079 24.49-22.319 37.697-5.76 12.053-6.6 25.132-11.04 37.697-6.24 17.951-16.8 34.364-30 47.314-10.2 10.002-28.321 25.517-42.96 18.336-11.641-5.77-19.201-19.49-26.28-30.26-7.201-10.899-15.72-18.977-25.68-27.183-13.2-10.899-27.72-20.388-43.2-26.927-13.92-5.898-28.8-9.232-42.96-14.489-6.84-2.436-13.68-5.257-19.8-9.36-6.72-4.488-10.2-10.771-13.8-18.208-3.24-6.668-6.36-13.592-9.84-20.131-2.28-4.359-7.32-6.667-11.04-9.36-5.52-3.975-9.24-12.822-12.84-18.849a324.982 324.982 0 0 1-14.28-27.439c-8.28-17.951-14.88-36.672-20.16-55.905-8.4-30.902-13.56-64.752-36.6-87.832-5.52-5.514-11.76-10.002-18.48-13.592-6.72-3.59-13.92-6.668-19.56-12.309-5.04-5.001-6.96-11.54-10.2-17.695-2.88-5.514-6.24-10.771-9.48-16.028-7.2-11.668-15-23.208-20.16-36.03-2.16-5.257-4.44-11.797-3.24-17.695 1.44-7.693 9.48-12.053 15.84-13.72 14.28-3.718 28.92 1.411 43.32-1.282 11.88-2.308 19.92-10.386 24.12-22.182 4.68-13.207 5.16-27.568 8.88-41.16 5.88-21.541 15.84-41.415 25.92-60.905 4.32-8.463 8.76-16.797 12.12-25.901 3.6-9.745 6.24-19.875 9.24-29.748.6-1.025-.84-1.41-1.08-.513Z" fill="url(#aE)"/><path d="M-69.26 278.958c-5.52 8.848-9.24 18.849-14.4 27.953-5.52 9.745-11.76 18.977-16.801 28.978-8.52 16.925-14.64 34.748-17.4 53.853-2.04 13.977-2.88 31.03-12.6 41.801-11.4 12.694-29.28 8.847-43.92 8.078-11.88-.641-27.12 0-34.44 11.796-4.92 7.822-.96 18.464 2.28 26.158 5.76 13.463 14.04 25.516 21.84 37.697 3.6 5.642 7.32 11.155 10.68 16.925 3 5.129 5.04 10.771 8.04 15.9 8.04 13.976 23.52 17.951 36 25.644 16.08 10.002 27 26.158 33.24 44.75 5.4 16.156 7.56 33.081 9.72 49.878 2.52 19.234 6.6 38.21 13.08 56.418 5.4 14.874 13.32 33.338 23.4 44.108 1.44 1.539 3 2.052 5.52 2.821 2.76.77 5.52 1.539 8.04 2.821 2.16 1.154 3.36 3.078 5.04 4.873 6.48 6.283 12 13.848 18.84 19.618 5.04 4.359 11.16 7.052 17.16 9.488 16.08 6.411 33.24 9.873 49.08 17.182 15.96 7.437 29.28 18.849 40.8 32.568 4.08 4.873 7.92 9.489 10.8 15.259 2.88 5.642 5.4 11.412 8.16 17.053 4.56 8.848 10.56 20.772 20.16 24.234 11.28 4.232 25.56-7.693 33.6-14.873 13.08-11.54 23.64-26.543 30.48-43.083 5.28-12.694 5.76-26.799 11.88-38.98 13.08-26.285 33.48-47.698 49.08-72.189 3.36-5.257 6.48-10.514 9-16.284 2.52-5.898 3.48-12.181 5.4-18.336 6.12-19.746 16.8-37.441 23.88-56.802 7.08-19.49 8.52-39.877 4.56-60.393-4.2-21.669-14.04-40.775-20.76-61.547-7.32-22.567-7.32-46.672-5.04-70.137 2.28-23.08 5.16-46.288 8.16-69.24 2.4-18.721 4.32-36.415-5.88-53.084-7.8-12.694-19.8-21.157-33.72-23.849-31.68-6.155-63.96 19.105-94.32 4.487-23.64-11.411-44.88-29.491-65.52-46.031-10.68-8.591-21.24-17.31-32.04-25.773-7.08-5.642-14.52-12.309-22.56-16.284-10.32-5.129-23.04-.129-32.88 4.103-14.04 6.026-27 14.232-41.04 20.131-5.4 2.308-11.76 2.949-16.44 6.667-4.8 3.847-7.08 9.617-8.52 15.772-.24.897 1.08 1.282 1.32.384 1.44-5.898 3.6-11.668 8.4-15.258 4.08-2.949 9.24-3.59 13.68-5.386 8.4-3.205 16.32-7.693 24.24-11.796 14.4-7.437 36.48-21.541 52.56-12.053 11.64 6.796 22.2 16.413 32.76 24.875 14.4 11.668 28.8 23.465 43.56 34.62 12.96 9.873 26.28 19.746 40.8 26.927 4.68 2.308 9.6 4.488 14.76 5.257 11.04 1.41 23.04-1.667 33.72-4.103 23.28-5.385 49.44-11.925 69.72 5.898 9.96 8.719 16.92 21.798 18 35.518 1.08 13.335-2.04 26.798-3.36 40.005-2.88 28.978-8.76 58.085-8.28 87.319.24 14.105 2.16 28.081 6.48 41.416 4.32 13.335 10.44 26.029 14.88 39.364 4.56 13.592 7.92 27.825 8.16 42.442.36 15.771-3.24 30.773-9 45.134-5.04 12.566-11.28 24.362-16.44 36.928-4.08 9.745-5.88 20.131-9.48 29.876-6.48 17.182-18.96 32.055-29.52 46.416-10.44 14.361-21.84 28.722-29.76 44.878-3.24 6.668-4.44 13.079-6 20.259-2.52 11.925-7.32 23.208-13.32 33.466-6.48 10.899-14.52 20.772-24 28.722-7.2 6.026-19.68 16.284-29.52 13.72-7.8-2.052-13.2-10.643-17.16-17.438-4.08-7.181-7.44-14.746-11.04-22.183-7.8-15.771-21.6-29.747-35.28-39.621-18.12-12.95-38.76-17.822-59.16-24.746-9.84-3.334-19.92-7.181-27.48-15.003-6.36-6.539-12.12-13.976-18.6-20.259-2.28-2.179-13.2-7.052-15.6-5.128.36-.257.48-.77.12-1.154-15.6-20.772-25.44-45.519-31.32-71.292-4.92-21.285-6.12-43.339-10.92-64.624-4.44-19.49-12.36-38.338-26.76-51.674-14.88-13.719-39-16.925-48.24-36.928-6.72-14.617-15.96-27.439-24.48-41.031-4.68-7.437-9.36-15.002-13.08-23.08-3-6.411-6.36-14.104-5.64-21.541.96-10.13 11.52-15.387 19.8-16.797 9.6-1.667 19.32 0 28.92.513 15.48.897 30.36-2.693 37.32-18.849 3.6-8.463 4.92-17.823 6.24-26.927 1.68-11.668 3.6-23.08 7.32-34.235 5.16-15.13 12.36-29.363 20.52-42.826 3.84-6.411 7.8-12.566 11.16-19.362 3.24-6.795 6.36-13.719 10.32-20.002.72-.898-.48-1.539-.96-.77Z" fill="url(#aF)"/><path d="M-57.382 291.781c-18.72 18.207-34.92 39.62-42.24 65.906-5.28 18.977-3.36 40.005-10.44 58.469-8.88 23.08-31.44 19.875-50.64 18.336-13.2-1.026-36.36-.769-40.08 17.31-2.76 13.335 6.96 28.722 13.2 39.236 9.48 16.028 20.76 30.645 30.24 46.673 4.08 6.796 6.6 14.746 11.76 20.772 6.6 7.95 15.96 12.309 24.84 16.669 10.68 5.129 20.76 10.899 28.92 20.259 7.68 8.847 12.96 19.618 16.2 31.03 7.44 25.26 4.92 51.673 7.44 77.702 2.64 26.927 10.08 53.341 27.36 73.856.24-.384.6-.769.84-1.154 1.44 1.026 6.48-.256 8.64-.256 3.12 0 5.64.513 8.4 1.539 10.8 3.846 19.92 11.796 30.6 16.027 22.8 9.104 48.12 11.669 68.4 27.184 14.88 11.411 23.76 29.106 29.28 47.314 3.6 11.924 7.92 31.286 19.2 37.569 5.52 3.077 11.4-.129 16.44-2.821 9.84-5.257 18.48-12.951 25.8-21.67 7.56-8.975 13.8-19.233 18.36-30.26 3.6-8.719 4.44-17.823 7.2-26.799 4.92-16.156 18.12-30.26 28.32-42.954 11.4-14.105 23.28-27.824 33.48-42.826 3.72-5.514 7.44-11.284 9.48-17.823 1.56-4.873 2.4-9.873 3.96-14.618 2.4-7.308 5.52-14.489 8.76-21.413 11.52-25.259 22.2-49.365 18.84-78.215-1.56-13.335-5.52-26.158-10.08-38.723-5.04-13.72-11.52-26.927-14.4-41.544-6.12-31.158.84-62.829 4.92-93.731 3.36-25.388 8.64-53.212-5.28-76.036-10.2-16.797-27.48-24.234-45.72-23.721-12.48.257-24.48 4.103-36.6 6.796-10.08 2.18-21.6 5.129-31.8 1.795-13.56-4.359-26.04-14.104-37.56-22.695-27.6-20.644-52.92-44.621-80.64-65.137-3.84-2.821-7.92-6.283-12.72-7.181-6.12-1.154-12.6 1.154-18.24 3.591-17.04 7.565-31.44 20.643-48.12 28.85-7.44 3.59-13.56 4.231-16.92 13.335-.36.897.96 1.282 1.32.384 3.48-9.616 14.88-11.411 22.8-16.027 8.04-4.745 15.72-10.258 23.76-15.259 7.8-5 15.96-10.001 24.84-12.566 7.08-1.923 12.48-.897 18.48 3.206 26.28 18.079 49.8 41.031 75.12 60.777 12.48 9.745 25.32 19.618 39.24 26.671 4.2 2.051 8.52 4.103 13.2 4.616 11.52 1.538 24.12-2.18 35.28-4.745 21.96-5.257 46.68-9.616 65.04 8.078 21.36 20.644 17.28 51.033 14.04 78.344-3.48 28.978-10.2 58.085-7.68 87.448 2.4 28.85 17.76 53.084 24.12 80.78 3.48 15.258 4.08 31.03.72 46.288-3 13.72-9 26.414-14.88 39.108-5.4 11.54-10.8 23.336-13.8 35.902-1.68 6.924-4.2 12.822-8.04 18.849-9.96 15.899-22.44 29.875-34.08 44.236-10.2 12.566-21.48 25.517-28.44 40.647-3.12 6.796-3.6 14.361-5.64 21.541-3.48 12.181-9.24 23.465-16.44 33.594-7.44 10.258-16.44 19.49-27 26.029-7.68 4.745-15.84 9.489-22.92 1.539-10.08-11.283-12.72-28.85-17.64-43.083-6-17.31-17.64-32.824-32.4-42.313-19.68-12.566-42.96-15.258-63.96-23.849-10.32-4.232-19.32-11.412-29.64-15.772-4.56-1.923-9.96-1.795-14.88-1.282-.84.128-6.36.898-3.6 2.821.72.513 1.32-.513.84-1.154-17.04-20.131-24.36-46.288-26.88-72.83-2.04-21.542-.6-43.211-4.32-64.496-3.6-20.259-11.88-39.621-27.24-52.571-16.56-13.976-41.64-16.669-51.84-38.467-6.96-14.745-16.32-27.696-25.32-41.031-9.12-13.848-20.52-29.363-23.76-46.288-1.68-8.976 1.44-15.9 8.88-20.772 8.76-5.77 19.8-5.129 29.64-4.36 15.96 1.283 35.52 5.129 47.04-10.001 11.04-14.489 9.6-36.415 12.36-53.853 5.16-31.928 22.8-57.7 45-79.113.96-1.283-.12-2.308-.72-1.667Z" fill="url(#aG)"/><path d="M-45.38 304.475c-11.88 4.359-23.04 8.719-30.84 19.874-6.48 9.232-10.08 20.644-12 31.927-3.36 19.106-.48 41.673-9.72 59.111-11.641 21.798-37.321 14.233-56.281 13.079-13.32-.77-35.04 2.179-37.08 20.259-1.8 15.13 9.36 31.671 16.68 43.467 10.32 16.412 22.08 31.671 32.4 48.212 4.2 6.795 6.96 14.745 11.76 21.156 6.6 8.848 15.96 14.105 25.56 18.721 11.04 5.257 22.2 10.001 31.2 18.848 8.4 8.207 14.4 18.849 18 30.389 15.84 51.032-16.68 114.246 24.12 156.816.6.641 1.56-.385.96-1.026-2.28-2.821 15.48-7.052 17.64-7.18 11.16-1.154 23.4 5.128 34.32 7.18 23.76 4.36 55.44 8.463 70.8 31.03 8.88 13.079 9.24 30.901 11.88 46.416 1.32 7.822 2.88 15.772 5.64 23.208 1.68 4.488 3.96 10.258 8.28 12.566 5.28 2.821 12.12-2.18 16.56-4.872 9.24-5.642 17.28-13.335 24-22.183 6.48-8.462 11.88-17.822 15.72-27.952 3.12-8.206 3.36-17.31 6.84-25.132 6.24-14.361 18.24-26.542 28.32-37.953 12-13.592 24.48-26.671 35.64-40.903 4.08-5.129 8.04-10.386 11.16-16.285 3.84-7.308 4.8-16.027 7.68-23.721 9.48-25.259 24.72-47.827 25.2-76.035.24-13.207-2.4-26.286-6.36-38.852-4.32-13.848-10.92-26.798-15-40.646-8.88-30.132-1.92-61.803 3-91.936 4.08-25.259 7.44-53.596-5.28-76.805-9-16.412-25.08-24.49-42.6-24.747-11.64-.128-22.92 3.078-34.2 5.642-10.08 2.308-22.08 5.898-32.28 2.693-12.72-3.847-24.36-13.335-34.92-21.285-27.12-20.644-51.96-44.493-78.72-65.778-8.4-6.668-15.36-12.95-26.28-8.976-15.6 5.642-28.68 18.977-41.64 29.363-6.6 5.129-12.72 9.489-20.16 12.31-.84.256-.48 1.795.36 1.41 14.88-5.513 26.64-18.079 39.24-27.824 10.44-8.078 25.32-20.644 38.16-11.797 11.4 7.822 21.72 17.31 32.28 26.414 13.2 11.284 26.28 22.696 39.72 33.723 12.48 10.129 25.08 20.387 38.88 28.337 4.2 2.436 8.76 4.872 13.56 6.026 8.4 2.052 18-.128 26.28-1.923 22.32-4.744 47.16-13.335 67.8 1.923 22.2 16.284 23.64 48.981 20.52 74.882-3.48 29.235-11.76 58.213-9.12 87.832 2.4 27.696 18 51.161 23.16 78.216 2.88 15.386 2.52 31.03-1.92 46.16-3.96 13.72-10.56 26.157-16.32 39.108-2.28 5.257-4.56 10.514-6.36 15.899-1.68 5.001-2.52 10.13-4.2 15.13-2.16 6.283-6.36 11.797-10.2 16.926-10.56 14.104-22.68 26.798-34.44 39.877-10.44 11.668-21.48 23.464-29.64 37.184-3 5.001-4.32 9.617-5.4 15.387-2.16 12.053-7.08 23.465-13.32 33.594-6.72 10.899-15.36 20.9-25.68 28.209-6 4.231-16.32 12.566-22.44 5.129-4.56-5.514-6.48-13.976-8.04-20.9-1.68-7.437-2.88-14.874-3.84-22.439-2.28-16.028-5.16-32.697-17.4-43.596-18.48-16.412-43.68-19.874-66.6-24.106-10.44-1.923-21.36-7.693-32.04-6.924-5.16.257-10.92 1.924-15.6 3.975-2.28 1.026-5.88 2.949-3.6 5.899l.96-1.026c-36.72-38.339-12.96-94.372-20.4-141.429-3.24-20.388-12.24-39.365-28.32-51.417-18.36-13.72-43.56-16.285-54.72-39.493-7.08-14.874-16.8-27.952-26.04-41.287-10.32-15.002-21.84-30.646-27.72-48.34-2.16-6.411-3.72-13.976-.24-20.259 6-10.771 18.48-13.207 29.16-13.079 17.4.256 38.64 8.078 54.24-3.847 14.52-11.283 14.52-34.107 15.84-51.289 1.08-13.206 2.76-26.67 8.04-38.851 2.88-6.796 6.84-13.079 12.24-17.823 6.84-6.154 15.36-8.975 23.76-12.053.72-.384.36-1.795-.6-1.538Z" fill="url(#aH)"/></g><defs><linearGradient id="b" x1="1257.89" y1="-448.154" x2="1257.89" y2="983.006" gradientUnits="userSpaceOnUse"><stop stop-color="#C4C4C4" stop-opacity="0"/><stop offset=".38" stop-color="#C4C4C4"/><stop offset=".578" stop-color="#C4C4C4"/><stop offset="1" stop-color="#C4C4C4" stop-opacity="0"/></linearGradient><linearGradient id="d" x1="1463.09" y1="-77.776" x2="811.982" y2="1165.25" gradientUnits="userSpaceOnUse"><stop stop-color="#BFA0D8"/><stop offset="1" stop-color="#60A5FA"/></linearGradient><linearGradient id="f" x1="1452.85" y1="-83.138" x2="801.744" y2="1159.88" gradientUnits="userSpaceOnUse"><stop stop-color="#BFA0D8"/><stop offset="1" stop-color="#60A5FA"/></linearGradient><linearGradient id="h" x1="1433.67" y1="-91.491" x2="777.68" y2="1160.85" gradientUnits="userSpaceOnUse"><stop stop-color="#BFA0D8"/><stop offset="1" stop-color="#60A5FA"/></linearGradient><linearGradient id="j" x1="1433.67" y1="-91.491" x2="777.68" y2="1160.85" gradientUnits="userSpaceOnUse"><stop stop-color="#BFA0D8"/><stop offset="1" stop-color="#60A5FA"/></linearGradient><linearGradient id="l" x1="1433.67" y1="-91.491" x2="777.68" y2="1160.85" gradientUnits="userSpaceOnUse"><stop stop-color="#BFA0D8"/><stop offset="1" stop-color="#60A5FA"/></linearGradient><linearGradient id="n" x1="1405.52" y1="-106.239" x2="749.526" y2="1146.1" gradientUnits="userSpaceOnUse"><stop stop-color="#BFA0D8"/><stop offset="1" stop-color="#60A5FA"/></linearGradient><linearGradient id="p" x1="1414.63" y1="-166.76" x2="706.359" y2="1185.39" gradientUnits="userSpaceOnUse"><stop stop-color="#BFA0D8"/><stop offset="1" stop-color="#60A5FA"/></linearGradient><linearGradient id="r" x1="1414.63" y1="-166.76" x2="706.359" y2="1185.39" gradientUnits="userSpaceOnUse"><stop stop-color="#BFA0D8"/><stop offset="1" stop-color="#60A5FA"/></linearGradient><linearGradient id="t" x1="1414.63" y1="-166.76" x2="706.359" y2="1185.39" gradientUnits="userSpaceOnUse"><stop stop-color="#BFA0D8"/><stop offset="1" stop-color="#60A5FA"/></linearGradient><linearGradient id="v" x1="1166.36" y1="571.961" x2="708.247" y2="671.064" gradientUnits="userSpaceOnUse"><stop stop-color="#C4C4C4" stop-opacity="0"/><stop offset=".566" stop-color="#C4C4C4"/><stop offset="1" stop-color="#C4C4C4" stop-opacity="0"/></linearGradient><linearGradient id="H" x1="1729.28" y1="44.74" x2="641.709" y2="675.208" gradientUnits="userSpaceOnUse"><stop stop-color="#BFA0D8"/><stop offset="1" stop-color="#60A5FA"/></linearGradient><linearGradient id="I" x1="1720.01" y1="28.461" x2="609.318" y2="672.359" gradientUnits="userSpaceOnUse"><stop stop-color="#BFA0D8"/><stop offset="1" stop-color="#60A5FA"/></linearGradient><linearGradient id="J" x1="1713.85" y1="10.972" x2="577.042" y2="670.04" gradientUnits="userSpaceOnUse"><stop stop-color="#BFA0D8"/><stop offset="1" stop-color="#60A5FA"/></linearGradient><linearGradient id="K" x1="1711.08" y1="-6.692" x2="545.529" y2="669.067" gradientUnits="userSpaceOnUse"><stop stop-color="#BFA0D8"/><stop offset="1" stop-color="#60A5FA"/></linearGradient><linearGradient id="L" x1="1711.98" y1="-23.316" x2="515.371" y2="670.472" gradientUnits="userSpaceOnUse"><stop stop-color="#BFA0D8"/><stop offset="1" stop-color="#60A5FA"/></linearGradient><linearGradient id="M" x1="1717.07" y1="-37.302" x2="487.516" y2="675.606" gradientUnits="userSpaceOnUse"><stop stop-color="#BFA0D8"/><stop offset="1" stop-color="#60A5FA"/></linearGradient><linearGradient id="N" x1="1727.64" y1="-45.278" x2="463.595" y2="687.633" gradientUnits="userSpaceOnUse"><stop stop-color="#BFA0D8"/><stop offset="1" stop-color="#60A5FA"/></linearGradient><linearGradient id="O" x1="1741.61" y1="-49.872" x2="441.699" y2="703.832" gradientUnits="userSpaceOnUse"><stop stop-color="#BFA0D8"/><stop offset="1" stop-color="#60A5FA"/></linearGradient><linearGradient id="P" x1="1757.86" y1="-52.318" x2="421.554" y2="722.477" gradientUnits="userSpaceOnUse"><stop stop-color="#BFA0D8"/><stop offset="1" stop-color="#60A5FA"/></linearGradient><linearGradient id="Q" x1="308.131" y1="872.811" x2="308.131" y2="1639.01" gradientUnits="userSpaceOnUse"><stop stop-color="#C4C4C4" stop-opacity="0"/><stop offset=".38" stop-color="#C4C4C4"/><stop offset=".578" stop-color="#C4C4C4"/><stop offset="1" stop-color="#C4C4C4" stop-opacity="0"/></linearGradient><linearGradient id="S" x1="-199.354" y1="788.307" x2="283.955" y2="226.461" gradientUnits="userSpaceOnUse"><stop stop-color="#BFA0D8"/><stop offset="1" stop-color="#60A5FA"/></linearGradient><linearGradient id="U" x1="-194.599" y1="792.397" x2="288.71" y2="230.552" gradientUnits="userSpaceOnUse"><stop stop-color="#BFA0D8"/><stop offset="1" stop-color="#60A5FA"/></linearGradient><linearGradient id="W" x1="-185.501" y1="799.175" x2="301.43" y2="233.119" gradientUnits="userSpaceOnUse"><stop stop-color="#BFA0D8"/><stop offset="1" stop-color="#60A5FA"/></linearGradient><linearGradient id="Y" x1="-185.501" y1="799.175" x2="301.43" y2="233.119" gradientUnits="userSpaceOnUse"><stop stop-color="#BFA0D8"/><stop offset="1" stop-color="#60A5FA"/></linearGradient><linearGradient id="aa" x1="-185.501" y1="799.175" x2="301.43" y2="233.119" gradientUnits="userSpaceOnUse"><stop stop-color="#BFA0D8"/><stop offset="1" stop-color="#60A5FA"/></linearGradient><linearGradient id="ac" x1="-172.426" y1="810.423" x2="314.506" y2="244.367" gradientUnits="userSpaceOnUse"><stop stop-color="#BFA0D8"/><stop offset="1" stop-color="#60A5FA"/></linearGradient><linearGradient id="ae" x1="-183.864" y1="840.881" x2="341.877" y2="229.709" gradientUnits="userSpaceOnUse"><stop stop-color="#BFA0D8"/><stop offset="1" stop-color="#60A5FA"/></linearGradient><linearGradient id="ag" x1="-183.864" y1="840.881" x2="341.877" y2="229.709" gradientUnits="userSpaceOnUse"><stop stop-color="#BFA0D8"/><stop offset="1" stop-color="#60A5FA"/></linearGradient><linearGradient id="ai" x1="-183.864" y1="840.881" x2="341.877" y2="229.709" gradientUnits="userSpaceOnUse"><stop stop-color="#BFA0D8"/><stop offset="1" stop-color="#60A5FA"/></linearGradient><linearGradient id="ak" x1="-13.799" y1="301.977" x2="237.125" y2="304.229" gradientUnits="userSpaceOnUse"><stop stop-color="#C4C4C4" stop-opacity="0"/><stop offset=".566" stop-color="#C4C4C4"/><stop offset="1" stop-color="#C4C4C4" stop-opacity="0"/></linearGradient><linearGradient id="aw" x1="27.709" y1="62.829" x2="27.709" y2="993.592" gradientUnits="userSpaceOnUse"><stop stop-color="#BFA0D8"/><stop offset="1" stop-color="#60A5FA"/></linearGradient><linearGradient id="ax" x1="32.653" y1="84.097" x2="32.653" y2="984.432" gradientUnits="userSpaceOnUse"><stop stop-color="#BFA0D8"/><stop offset="1" stop-color="#60A5FA"/></linearGradient><linearGradient id="ay" x1="36.08" y1="105.393" x2="36.08" y2="975.474" gradientUnits="userSpaceOnUse"><stop stop-color="#BFA0D8"/><stop offset="1" stop-color="#60A5FA"/></linearGradient><linearGradient id="az" x1="38.245" y1="125.891" x2="38.245" y2="966.725" gradientUnits="userSpaceOnUse"><stop stop-color="#BFA0D8"/><stop offset="1" stop-color="#60A5FA"/></linearGradient><linearGradient id="aA" x1="39.946" y1="146.023" x2="39.946" y2="958.014" gradientUnits="userSpaceOnUse"><stop stop-color="#BFA0D8"/><stop offset="1" stop-color="#60A5FA"/></linearGradient><linearGradient id="aB" x1="41.187" y1="164.964" x2="41.187" y2="949.612" gradientUnits="userSpaceOnUse"><stop stop-color="#BFA0D8"/><stop offset="1" stop-color="#60A5FA"/></linearGradient><linearGradient id="aC" x1="42.557" y1="181.92" x2="42.557" y2="940.532" gradientUnits="userSpaceOnUse"><stop stop-color="#BFA0D8"/><stop offset="1" stop-color="#60A5FA"/></linearGradient><linearGradient id="aD" x1="43.787" y1="198.478" x2="43.787" y2="932.015" gradientUnits="userSpaceOnUse"><stop stop-color="#BFA0D8"/><stop offset="1" stop-color="#60A5FA"/></linearGradient><linearGradient id="aE" x1="45.219" y1="214.862" x2="45.219" y2="924.279" gradientUnits="userSpaceOnUse"><stop stop-color="#BFA0D8"/><stop offset="1" stop-color="#60A5FA"/></linearGradient><linearGradient id="aF" x1="45.984" y1="230.238" x2="45.984" y2="915.698" gradientUnits="userSpaceOnUse"><stop stop-color="#BFA0D8"/><stop offset="1" stop-color="#60A5FA"/></linearGradient><linearGradient id="aG" x1="47.271" y1="246.34" x2="47.271" y2="907.479" gradientUnits="userSpaceOnUse"><stop stop-color="#BFA0D8"/><stop offset="1" stop-color="#60A5FA"/></linearGradient><linearGradient id="aH" x1="48.79" y1="261.563" x2="48.79" y2="899.364" gradientUnits="userSpaceOnUse"><stop stop-color="#BFA0D8"/><stop offset="1" stop-color="#60A5FA"/></linearGradient><filter id="a" x="234" y="-58" width="979" height="979" filterUnits="userSpaceOnUse" color-interpolation-filters="sRGB"><feFlood flood-opacity="0" result="BackgroundImageFix"/><feBlend in="SourceGraphic" in2="BackgroundImageFix" result="shape"/><feGaussianBlur stdDeviation="100" result="effect1_foregroundBlur_381_6500"/></filter><filter id="e" x="550.097" y="-249.046" width="1010.07" height="1403.83" filterUnits="userSpaceOnUse" color-interpolation-filters="sRGB"><feFlood flood-opacity="0" result="BackgroundImageFix"/><feBlend in="SourceGraphic" in2="BackgroundImageFix" result="shape"/><feGaussianBlur stdDeviation="7.262" result="effect1_foregroundBlur_381_6500"/></filter><filter id="g" x="495.552" y="-290.805" width="1079.21" height="1473.96" filterUnits="userSpaceOnUse" color-interpolation-filters="sRGB"><feFlood flood-opacity="0" result="BackgroundImageFix"/><feBlend in="SourceGraphic" in2="BackgroundImageFix" result="shape"/><feGaussianBlur stdDeviation="21.787" result="effect1_foregroundBlur_381_6500"/></filter><filter id="i" x="476.186" y="-310.171" width="1117.94" height="1512.69" filterUnits="userSpaceOnUse" color-interpolation-filters="sRGB"><feFlood flood-opacity="0" result="BackgroundImageFix"/><feBlend in="SourceGraphic" in2="BackgroundImageFix" result="shape"/><feGaussianBlur stdDeviation="31.469" result="effect1_foregroundBlur_381_6500"/></filter><filter id="k" x="476.186" y="-310.171" width="1117.94" height="1512.69" filterUnits="userSpaceOnUse" color-interpolation-filters="sRGB"><feFlood flood-opacity="0" result="BackgroundImageFix"/><feBlend in="SourceGraphic" in2="BackgroundImageFix" result="shape"/><feGaussianBlur stdDeviation="31.469" result="effect1_foregroundBlur_381_6500"/></filter><filter id="m" x="389.04" y="-397.317" width="1243.99" height="1685.92" filterUnits="userSpaceOnUse" color-interpolation-filters="sRGB"><feFlood flood-opacity="0" result="BackgroundImageFix"/><feBlend in="SourceGraphic" in2="BackgroundImageFix" result="shape"/><feGaussianBlur stdDeviation="75.042" result="effect1_foregroundBlur_381_6500"/></filter><filter id="o" x="422.147" y="-375.673" width="1147.77" height="1666.17" filterUnits="userSpaceOnUse" color-interpolation-filters="sRGB"><feFlood flood-opacity="0" result="BackgroundImageFix"/><feBlend in="SourceGraphic" in2="BackgroundImageFix" result="shape"/><feGaussianBlur stdDeviation="45.994" result="effect1_foregroundBlur_381_6500"/></filter><filter id="q" x="315.636" y="-482.185" width="1360.79" height="1879.19" filterUnits="userSpaceOnUse" color-interpolation-filters="sRGB"><feFlood flood-opacity="0" result="BackgroundImageFix"/><feBlend in="SourceGraphic" in2="BackgroundImageFix" result="shape"/><feGaussianBlur stdDeviation="99.249" result="effect1_foregroundBlur_381_6500"/></filter><filter id="s" x="218.807" y="-579.014" width="1554.45" height="2072.85" filterUnits="userSpaceOnUse" color-interpolation-filters="sRGB"><feFlood flood-opacity="0" result="BackgroundImageFix"/><feBlend in="SourceGraphic" in2="BackgroundImageFix" result="shape"/><feGaussianBlur stdDeviation="147.664" result="effect1_foregroundBlur_381_6500"/></filter><filter id="u" x="723.521" y="484.651" width="643.463" height="517.916" filterUnits="userSpaceOnUse" color-interpolation-filters="sRGB"><feFlood flood-opacity="0" result="BackgroundImageFix"/><feBlend in="SourceGraphic" in2="BackgroundImageFix" result="shape"/><feGaussianBlur stdDeviation="2.974" result="effect1_foregroundBlur_381_6500"/></filter><filter id="x" x="733.388" y="312.817" width="734.056" height="727.289" filterUnits="userSpaceOnUse" color-interpolation-filters="sRGB"><feFlood flood-opacity="0" result="BackgroundImageFix"/><feBlend in="SourceGraphic" in2="BackgroundImageFix" result="shape"/><feGaussianBlur stdDeviation="2.974" result="effect1_foregroundBlur_381_6500"/></filter><filter id="y" x="676.285" y="255.715" width="848.261" height="841.494" filterUnits="userSpaceOnUse" color-interpolation-filters="sRGB"><feFlood flood-opacity="0" result="BackgroundImageFix"/><feBlend in="SourceGraphic" in2="BackgroundImageFix" result="shape"/><feGaussianBlur stdDeviation="31.525" result="effect1_foregroundBlur_381_6500"/></filter><filter id="z" x="704.837" y="284.266" width="791.159" height="784.391" filterUnits="userSpaceOnUse" color-interpolation-filters="sRGB"><feFlood flood-opacity="0" result="BackgroundImageFix"/><feBlend in="SourceGraphic" in2="BackgroundImageFix" result="shape"/><feGaussianBlur stdDeviation="17.25" result="effect1_foregroundBlur_381_6500"/></filter><filter id="A" x="704.837" y="284.266" width="791.159" height="784.391" filterUnits="userSpaceOnUse" color-interpolation-filters="sRGB"><feFlood flood-opacity="0" result="BackgroundImageFix"/><feBlend in="SourceGraphic" in2="BackgroundImageFix" result="shape"/><feGaussianBlur stdDeviation="17.25" result="effect1_foregroundBlur_381_6500"/></filter><filter id="B" x="694.969" y="284.266" width="801.026" height="784.391" filterUnits="userSpaceOnUse" color-interpolation-filters="sRGB"><feFlood flood-opacity="0" result="BackgroundImageFix"/><feBlend in="SourceGraphic" in2="BackgroundImageFix" result="shape"/><feGaussianBlur stdDeviation="17.25" result="effect1_foregroundBlur_381_6500"/></filter><filter id="C" x="752.781" y="299.961" width="753.091" height="762.212" filterUnits="userSpaceOnUse" color-interpolation-filters="sRGB"><feFlood flood-opacity="0" result="BackgroundImageFix"/><feBlend in="SourceGraphic" in2="BackgroundImageFix" result="shape"/><feGaussianBlur stdDeviation="7.733" result="effect1_foregroundBlur_381_6500"/></filter><filter id="D" x="735.497" y="302.474" width="757.849" height="760.559" filterUnits="userSpaceOnUse" color-interpolation-filters="sRGB"><feFlood flood-opacity="0" result="BackgroundImageFix"/><feBlend in="SourceGraphic" in2="BackgroundImageFix" result="shape"/><feGaussianBlur stdDeviation="8.922" result="effect1_foregroundBlur_381_6500"/></filter><filter id="E" x="737.147" y="315.988" width="741.194" height="729.35" filterUnits="userSpaceOnUse" color-interpolation-filters="sRGB"><feFlood flood-opacity="0" result="BackgroundImageFix"/><feBlend in="SourceGraphic" in2="BackgroundImageFix" result="shape"/><feGaussianBlur stdDeviation="4.759" result="effect1_foregroundBlur_381_6500"/></filter><filter id="F" x="718.111" y="460.635" width="779.264" height="598.786" filterUnits="userSpaceOnUse" color-interpolation-filters="sRGB"><feFlood flood-opacity="0" result="BackgroundImageFix"/><feBlend in="SourceGraphic" in2="BackgroundImageFix" result="shape"/><feGaussianBlur stdDeviation="14.276" result="effect1_foregroundBlur_381_6500"/></filter><filter id="G" x="718.111" y="460.635" width="779.264" height="602.41" filterUnits="userSpaceOnUse" color-interpolation-filters="sRGB"><feFlood flood-opacity="0" result="BackgroundImageFix"/><feBlend in="SourceGraphic" in2="BackgroundImageFix" result="shape"/><feGaussianBlur stdDeviation="14.276" result="effect1_foregroundBlur_381_6500"/></filter><filter id="T" x="-217.3" y="202.635" width="623.271" height="722.48" filterUnits="userSpaceOnUse" color-interpolation-filters="sRGB"><feFlood flood-opacity="0" result="BackgroundImageFix"/><feBlend in="SourceGraphic" in2="BackgroundImageFix" result="shape"/><feGaussianBlur stdDeviation="7.262" result="effect1_foregroundBlur_381_6500"/></filter><filter id="V" x="-237.837" y="177.013" width="686.197" height="787.253" filterUnits="userSpaceOnUse" color-interpolation-filters="sRGB"><feFlood flood-opacity="0" result="BackgroundImageFix"/><feBlend in="SourceGraphic" in2="BackgroundImageFix" result="shape"/><feGaussianBlur stdDeviation="21.787" result="effect1_foregroundBlur_381_6500"/></filter><filter id="X" x="-257.202" y="157.647" width="724.928" height="825.985" filterUnits="userSpaceOnUse" color-interpolation-filters="sRGB"><feFlood flood-opacity="0" result="BackgroundImageFix"/><feBlend in="SourceGraphic" in2="BackgroundImageFix" result="shape"/><feGaussianBlur stdDeviation="31.469" result="effect1_foregroundBlur_381_6500"/></filter><filter id="Z" x="-257.202" y="157.647" width="724.928" height="825.985" filterUnits="userSpaceOnUse" color-interpolation-filters="sRGB"><feFlood flood-opacity="0" result="BackgroundImageFix"/><feBlend in="SourceGraphic" in2="BackgroundImageFix" result="shape"/><feGaussianBlur stdDeviation="31.469" result="effect1_foregroundBlur_381_6500"/></filter><filter id="ab" x="-327.137" y="74.284" width="882.009" height="996.493" filterUnits="userSpaceOnUse" color-interpolation-filters="sRGB"><feFlood flood-opacity="0" result="BackgroundImageFix"/><feBlend in="SourceGraphic" in2="BackgroundImageFix" result="shape"/><feGaussianBlur stdDeviation="75.042" result="effect1_foregroundBlur_381_6500"/></filter><filter id="ad" x="-268.878" y="104.621" width="773.834" height="918.542" filterUnits="userSpaceOnUse" color-interpolation-filters="sRGB"><feFlood flood-opacity="0" result="BackgroundImageFix"/><feBlend in="SourceGraphic" in2="BackgroundImageFix" result="shape"/><feGaussianBlur stdDeviation="45.994" result="effect1_foregroundBlur_381_6500"/></filter><filter id="af" x="-375.39" y="-1.891" width="986.857" height="1131.57" filterUnits="userSpaceOnUse" color-interpolation-filters="sRGB"><feFlood flood-opacity="0" result="BackgroundImageFix"/><feBlend in="SourceGraphic" in2="BackgroundImageFix" result="shape"/><feGaussianBlur stdDeviation="99.249" result="effect1_foregroundBlur_381_6500"/></filter><filter id="ah" x="-472.218" y="-98.72" width="1180.51" height="1325.22" filterUnits="userSpaceOnUse" color-interpolation-filters="sRGB"><feFlood flood-opacity="0" result="BackgroundImageFix"/><feBlend in="SourceGraphic" in2="BackgroundImageFix" result="shape"/><feGaussianBlur stdDeviation="147.664" result="effect1_foregroundBlur_381_6500"/></filter><filter id="aj" x="-131.003" y="253.448" width="406.355" height="96.762" filterUnits="userSpaceOnUse" color-interpolation-filters="sRGB"><feFlood flood-opacity="0" result="BackgroundImageFix"/><feBlend in="SourceGraphic" in2="BackgroundImageFix" result="shape"/><feGaussianBlur stdDeviation="2.974" result="effect1_foregroundBlur_381_6500"/></filter><filter id="am" x="-125.278" y="265.167" width="425.23" height="337.053" filterUnits="userSpaceOnUse" color-interpolation-filters="sRGB"><feFlood flood-opacity="0" result="BackgroundImageFix"/><feBlend in="SourceGraphic" in2="BackgroundImageFix" result="shape"/><feGaussianBlur stdDeviation="2.974" result="effect1_foregroundBlur_381_6500"/></filter><filter id="an" x="-182.381" y="208.064" width="539.435" height="451.257" filterUnits="userSpaceOnUse" color-interpolation-filters="sRGB"><feFlood flood-opacity="0" result="BackgroundImageFix"/><feBlend in="SourceGraphic" in2="BackgroundImageFix" result="shape"/><feGaussianBlur stdDeviation="31.525" result="effect1_foregroundBlur_381_6500"/></filter><filter id="ao" x="-153.829" y="236.615" width="482.333" height="394.155" filterUnits="userSpaceOnUse" color-interpolation-filters="sRGB"><feFlood flood-opacity="0" result="BackgroundImageFix"/><feBlend in="SourceGraphic" in2="BackgroundImageFix" result="shape"/><feGaussianBlur stdDeviation="17.25" result="effect1_foregroundBlur_381_6500"/></filter><filter id="ap" x="-153.829" y="236.615" width="482.333" height="394.155" filterUnits="userSpaceOnUse" color-interpolation-filters="sRGB"><feFlood flood-opacity="0" result="BackgroundImageFix"/><feBlend in="SourceGraphic" in2="BackgroundImageFix" result="shape"/><feGaussianBlur stdDeviation="17.25" result="effect1_foregroundBlur_381_6500"/></filter><filter id="aq" x="-153.829" y="236.616" width="487.69" height="394.155" filterUnits="userSpaceOnUse" color-interpolation-filters="sRGB"><feFlood flood-opacity="0" result="BackgroundImageFix"/><feBlend in="SourceGraphic" in2="BackgroundImageFix" result="shape"/><feGaussianBlur stdDeviation="17.25" result="effect1_foregroundBlur_381_6500"/></filter><filter id="ar" x="-148.186" y="247.604" width="444.264" height="368.905" filterUnits="userSpaceOnUse" color-interpolation-filters="sRGB"><feFlood flood-opacity="0" result="BackgroundImageFix"/><feBlend in="SourceGraphic" in2="BackgroundImageFix" result="shape"/><feGaussianBlur stdDeviation="7.733" result="effect1_foregroundBlur_381_6500"/></filter><filter id="as" x="-142.95" y="247.896" width="449.023" height="369.022" filterUnits="userSpaceOnUse" color-interpolation-filters="sRGB"><feFlood flood-opacity="0" result="BackgroundImageFix"/><feBlend in="SourceGraphic" in2="BackgroundImageFix" result="shape"/><feGaussianBlur stdDeviation="8.922" result="effect1_foregroundBlur_381_6500"/></filter><filter id="at" x="-132.167" y="261.957" width="432.368" height="341.31" filterUnits="userSpaceOnUse" color-interpolation-filters="sRGB"><feFlood flood-opacity="0" result="BackgroundImageFix"/><feBlend in="SourceGraphic" in2="BackgroundImageFix" result="shape"/><feGaussianBlur stdDeviation="4.759" result="effect1_foregroundBlur_381_6500"/></filter><filter id="au" x="-151.202" y="245.53" width="470.436" height="288.662" filterUnits="userSpaceOnUse" color-interpolation-filters="sRGB"><feFlood flood-opacity="0" result="BackgroundImageFix"/><feBlend in="SourceGraphic" in2="BackgroundImageFix" result="shape"/><feGaussianBlur stdDeviation="14.276" result="effect1_foregroundBlur_381_6500"/></filter><filter id="av" x="-151.202" y="245.583" width="470.436" height="288.61" filterUnits="userSpaceOnUse" color-interpolation-filters="sRGB"><feFlood flood-opacity="0" result="BackgroundImageFix"/><feBlend in="SourceGraphic" in2="BackgroundImageFix" result="shape"/><feGaussianBlur stdDeviation="14.276" result="effect1_foregroundBlur_381_6500"/></filter></defs></svg>